<?xml version="1.0" encoding="utf-8"?>
<!-- Generator: Adobe Illustrator 23.0.3, SVG Export Plug-In . SVG Version: 6.00 Build 0)  -->
<svg version="1.1" id="Layer_1" xmlns="http://www.w3.org/2000/svg"
	 xmlns:xlink="http://www.w3.org/1999/xlink" x="0px" y="0px" viewBox="0 0 307 79"
	 style="enable-background:new 0 0 307 79;" xml:space="preserve">
<style type="text/css">
	.st0{fill:#231F20;}
	.st1{fill:#DB4D00;}
</style>
<g>
	<path class="st0" d="M122.7,20.3c0,1.4-0.2,2.5-0.7,3.6c-0.5,1.1-1.2,1.9-2.1,2.5c-0.8,0.7-1.9,1.2-3,1.6
		c-1.2,0.3-2.4,0.5-3.7,0.5c-0.9,0-1.7-0.1-2.5-0.2c-0.7-0.1-1.4-0.3-2-0.5c-0.6-0.2-1.1-0.4-1.5-0.6c-0.4-0.2-0.6-0.4-0.8-0.6
		c-0.2-0.2-0.3-0.4-0.4-0.7c-0.1-0.3-0.1-0.9-0.1-1.4c0-0.4,0-0.8,0-1.1s0.1-0.5,0.1-0.6c0.1-0.2,0.1-0.3,0.2-0.4
		c0.1-0.1,0.2-0.1,0.3-0.1c0.2,0,0.4,0.1,0.9,0.3c0.3,0.2,0.7,0.4,1.3,0.7c0.5,0.3,1.2,0.5,1.9,0.7c0.8,0.2,1.6,0.3,2.5,0.3
		c0.6,0,1.3-0.1,1.7-0.2c0.5-0.1,0.9-0.4,1.3-0.6c0.3-0.3,0.6-0.6,0.9-1.1c0.2-0.4,0.3-0.9,0.3-1.4c0-0.6-0.2-1-0.5-1.5
		c-0.3-0.4-0.7-0.9-1.3-1.2c-0.5-0.3-1-0.6-1.8-0.9c-0.6-0.3-1.4-0.6-2-0.9c-0.6-0.3-1.4-0.7-2-1.1c-0.6-0.4-1.3-0.9-1.8-1.5
		c-0.5-0.5-0.9-1.3-1.3-2c-0.3-0.7-0.5-1.7-0.5-2.7c0-1.3,0.2-2.3,0.7-3.3c0.4-0.9,1.1-1.7,1.9-2.3c0.8-0.6,1.7-1,2.7-1.3
		c1.1-0.3,2.2-0.4,3.4-0.4c0.6,0,1.3,0,1.9,0.1c0.6,0.1,1.2,0.2,1.7,0.4c0.5,0.2,1.1,0.3,1.5,0.5c0.4,0.2,0.8,0.3,0.9,0.5
		c0.1,0.2,0.2,0.2,0.3,0.3c0,0.1,0.1,0.2,0.1,0.4c0,0.1,0.1,0.3,0.1,0.6c0,0.2,0,0.5,0,0.9c0,0.4,0,0.7,0,0.9
		c0,0.3-0.1,0.5-0.1,0.6c0,0.2-0.1,0.3-0.2,0.4c-0.1,0.1-0.2,0.1-0.3,0.1c-0.1,0-0.4-0.1-0.8-0.3c-0.3-0.2-0.5-0.5-0.9-0.7
		c-0.4-0.2-1-0.4-1.6-0.6c-0.6-0.2-1.3-0.3-2-0.3c-0.5,0-1.1,0.1-1.5,0.2c-0.4,0.1-0.8,0.3-1.1,0.6c-0.3,0.2-0.5,0.5-0.6,0.9
		c-0.1,0.3-0.2,0.7-0.2,1c0,0.5,0.1,1.1,0.4,1.5c0.2,0.5,0.6,0.9,1.2,1.3s1.2,0.6,1.8,0.9c0.6,0.3,1.4,0.6,2,0.9
		c0.6,0.3,1.4,0.7,2,1.1c0.6,0.4,1.3,0.9,1.8,1.5c0.5,0.5,0.9,1.3,1.3,2C122.6,18.4,122.7,19.2,122.7,20.3z"/>
	<path class="st0" d="M141.6,27.4c0,0.2-0.1,0.3-0.2,0.4c-0.1,0.1-0.3,0.2-0.6,0.2c-0.3,0-0.7,0.1-1.3,0.1c-0.6,0-1.1,0-1.3-0.1
		c-0.3,0-0.4-0.1-0.6-0.2c-0.1-0.1-0.2-0.2-0.2-0.4V26c-0.7,0.8-1.6,1.4-2.5,1.9c-0.9,0.4-2,0.6-3.2,0.6c-0.9,0-1.8-0.1-2.6-0.4
		c-0.9-0.2-1.5-0.6-2.1-1.1c-0.6-0.5-1-1.1-1.4-1.8c-0.3-0.7-0.5-1.6-0.5-2.5c0-1,0.2-2,0.6-2.7c0.4-0.7,1-1.4,1.8-1.9
		c0.9-0.5,1.8-0.9,3-1.2c1.3-0.3,2.6-0.3,4.2-0.3h1.8v-1c0-0.5-0.1-1.1-0.2-1.5c-0.1-0.4-0.3-0.7-0.5-1c-0.2-0.3-0.6-0.5-1-0.6
		c-0.4-0.1-0.9-0.2-1.6-0.2c-0.9,0-1.6,0.1-2.2,0.3c-0.6,0.2-1.3,0.4-1.8,0.6c-0.5,0.2-1,0.4-1.3,0.6s-0.6,0.3-0.9,0.3
		c-0.1,0-0.3,0-0.4-0.1c-0.1-0.1-0.2-0.2-0.3-0.4c-0.1-0.2-0.1-0.4-0.2-0.6c0-0.2-0.1-0.5-0.1-0.8c0-0.4,0-0.7,0.1-0.9
		c0.1-0.2,0.2-0.4,0.4-0.6c0.2-0.2,0.5-0.4,0.9-0.6c0.4-0.2,1.1-0.4,1.7-0.6c0.6-0.2,1.3-0.3,2.1-0.5c0.7-0.1,1.5-0.2,2.3-0.2
		c1.3,0,2.6,0.1,3.6,0.4c0.9,0.3,1.8,0.7,2.4,1.3c0.6,0.5,1.2,1.3,1.4,2.2c0.2,0.9,0.4,2,0.4,3.2v11.9L141.6,27.4L141.6,27.4z
		 M136.7,19.8h-1.9c-0.9,0-1.5,0.1-2.1,0.2c-0.6,0.1-1.1,0.3-1.4,0.5c-0.3,0.2-0.6,0.5-0.8,0.9c-0.2,0.3-0.2,0.7-0.2,1.2
		c0,0.7,0.2,1.4,0.7,1.8c0.5,0.4,1.2,0.6,2,0.6c0.8,0,1.4-0.2,2-0.5c0.6-0.3,1.2-0.9,1.8-1.6v-3.1L136.7,19.8L136.7,19.8z"/>
	<path class="st0" d="M151.7,27.4c0,0.1,0,0.2-0.1,0.3c-0.1,0.1-0.2,0.2-0.4,0.2s-0.4,0.1-0.7,0.1c-0.3,0-0.7,0-1.3,0
		c-0.5,0-0.9,0-1.3,0c-0.3,0-0.5-0.1-0.7-0.1c-0.2-0.1-0.3-0.1-0.4-0.2c-0.1-0.1-0.1-0.2-0.1-0.3V1.1c0-0.1,0-0.2,0.1-0.3
		c0.1-0.1,0.2-0.2,0.4-0.3c0.2-0.1,0.4-0.1,0.7-0.2c0.3-0.1,0.7-0.1,1.3-0.1c0.5,0,0.9,0,1.3,0.1c0.3,0.1,0.5,0.1,0.7,0.2
		c0.2,0.1,0.3,0.2,0.4,0.3c0.1,0.1,0.1,0.2,0.1,0.3V27.4z"/>
	<path class="st0" d="M172,27.4c0,0.2-0.1,0.3-0.2,0.4c-0.1,0.1-0.3,0.2-0.6,0.2c-0.3,0-0.7,0.1-1.3,0.1c-0.6,0-1.1,0-1.3-0.1
		c-0.3,0-0.4-0.1-0.6-0.2c-0.1-0.1-0.2-0.2-0.2-0.4V26c-0.7,0.8-1.6,1.4-2.5,1.9c-0.9,0.4-2,0.6-3.2,0.6c-0.9,0-1.8-0.1-2.6-0.4
		c-0.9-0.2-1.5-0.6-2.1-1.1c-0.6-0.5-1.1-1.1-1.4-1.8c-0.3-0.7-0.5-1.6-0.5-2.5c0-1,0.2-2,0.6-2.7c0.4-0.7,1.1-1.4,1.8-1.9
		c0.9-0.5,1.8-0.9,3-1.2c1.3-0.3,2.6-0.3,4.2-0.3h1.8v-1c0-0.5-0.1-1.1-0.2-1.5c-0.1-0.4-0.3-0.7-0.5-1c-0.2-0.3-0.6-0.5-1.1-0.6
		c-0.4-0.1-0.9-0.2-1.6-0.2c-0.9,0-1.6,0.1-2.2,0.3c-0.6,0.2-1.3,0.4-1.8,0.6c-0.5,0.2-0.9,0.4-1.3,0.6c-0.3,0.2-0.6,0.3-0.9,0.3
		c-0.1,0-0.3,0-0.4-0.1c-0.1-0.1-0.2-0.2-0.3-0.4c-0.1-0.2-0.1-0.4-0.2-0.6c0-0.2-0.1-0.5-0.1-0.8c0-0.4,0-0.7,0.1-0.9
		c0.1-0.2,0.2-0.4,0.4-0.6c0.2-0.2,0.5-0.4,0.9-0.6c0.4-0.2,1.1-0.4,1.7-0.6c0.6-0.2,1.3-0.3,2.1-0.5c0.7-0.1,1.5-0.2,2.3-0.2
		c1.4,0,2.6,0.1,3.6,0.4s1.8,0.7,2.4,1.3c0.6,0.5,1.2,1.3,1.4,2.2c0.2,0.9,0.4,2,0.4,3.2v11.9L172,27.4L172,27.4z M167.1,19.8h-1.9
		c-0.8,0-1.5,0.1-2.1,0.2c-0.6,0.1-1,0.3-1.3,0.5c-0.3,0.2-0.6,0.5-0.9,0.9c-0.2,0.3-0.2,0.7-0.2,1.2c0,0.7,0.2,1.3,0.7,1.8
		c0.5,0.4,1.2,0.6,2,0.6c0.7,0,1.4-0.2,2-0.5c0.6-0.3,1.2-0.9,1.8-1.6L167.1,19.8L167.1,19.8L167.1,19.8z"/>
	<path class="st0" d="M205.5,27.4c0,0.1,0,0.2-0.1,0.3c-0.1,0.1-0.2,0.2-0.4,0.2s-0.4,0.1-0.7,0.1c-0.3,0-0.8,0-1.3,0
		c-0.5,0-0.9,0-1.3,0c-0.3,0-0.5-0.1-0.8-0.1c-0.2,0-0.3-0.1-0.4-0.2c-0.1-0.1-0.1-0.2-0.1-0.3V16.8c0-0.6-0.1-1.2-0.2-1.7
		c-0.1-0.5-0.3-0.9-0.5-1.3c-0.2-0.3-0.5-0.6-0.9-0.8c-0.3-0.2-0.7-0.3-1.3-0.3c-0.6,0-1.2,0.2-1.8,0.8c-0.6,0.4-1.3,1.2-2,2v11.9
		c0,0.1,0,0.2-0.1,0.3c-0.1,0.1-0.2,0.2-0.4,0.2c-0.2,0.1-0.4,0.1-0.7,0.1c-0.3,0-0.7,0-1.2,0c-0.5,0-0.9,0-1.3,0
		c-0.3,0-0.5-0.1-0.7-0.1c-0.2-0.1-0.3-0.1-0.4-0.2c-0.1-0.1-0.1-0.2-0.1-0.3V16.8c0-0.6-0.1-1.2-0.2-1.7c-0.1-0.5-0.3-0.9-0.5-1.3
		c-0.2-0.3-0.5-0.6-0.8-0.8c-0.3-0.2-0.8-0.3-1.3-0.3c-0.6,0-1.3,0.2-1.9,0.8c-0.6,0.4-1.3,1.2-2,2v11.9c0,0.1,0,0.2-0.1,0.3
		c-0.1,0.1-0.2,0.2-0.4,0.2c-0.2,0-0.4,0.1-0.7,0.1c-0.3,0-0.7,0-1.3,0c-0.5,0-1,0-1.3,0c-0.3,0-0.5-0.1-0.7-0.1
		c-0.2-0.1-0.3-0.1-0.4-0.2c-0.1-0.1-0.1-0.2-0.1-0.3V9.4c0-0.1,0-0.2,0.1-0.3c0.1-0.1,0.2-0.2,0.3-0.2c0.1,0,0.4-0.1,0.6-0.1
		c0.3,0,0.6,0,1.1,0s0.7,0,1,0c0.3,0,0.5,0.1,0.6,0.1c0.1,0,0.3,0.1,0.3,0.2c0.1,0.1,0.1,0.2,0.1,0.3v2.1c0.9-1,2-1.9,3-2.4
		c0.9-0.5,2-0.9,3-0.9c0.7,0,1.4,0.1,2,0.2c0.6,0.1,1.2,0.4,1.6,0.6c0.4,0.3,0.9,0.6,1.2,1.1c0.3,0.4,0.6,0.8,0.9,1.3
		c0.5-0.5,1-1,1.6-1.5c0.5-0.4,1.1-0.7,1.5-1c0.5-0.2,1-0.4,1.5-0.6c0.5-0.1,1.1-0.2,1.6-0.2c1.2,0,2.2,0.2,3,0.6
		c0.9,0.4,1.5,0.9,2,1.7c0.5,0.7,0.8,1.5,1,2.4c0.2,0.9,0.3,1.9,0.3,3L205.5,27.4L205.5,27.4L205.5,27.4z"/>
	<path class="st0" d="M225.7,27.4c0,0.2-0.1,0.3-0.2,0.4c-0.1,0.1-0.3,0.2-0.6,0.2c-0.3,0-0.7,0.1-1.3,0.1c-0.6,0-1.1,0-1.3-0.1
		c-0.3,0-0.4-0.1-0.6-0.2c-0.1-0.1-0.2-0.2-0.2-0.4V26c-0.7,0.8-1.6,1.4-2.5,1.9c-0.9,0.5-2,0.6-3.2,0.6c-0.9,0-1.8-0.1-2.6-0.4
		c-0.9-0.2-1.5-0.6-2.1-1.1c-0.6-0.5-1.1-1.1-1.4-1.8c-0.3-0.7-0.5-1.6-0.5-2.5c0-1,0.2-2,0.6-2.7c0.4-0.7,1-1.4,1.8-1.9
		c0.9-0.5,1.8-0.9,3-1.2c1.3-0.3,2.6-0.3,4.2-0.3h1.8v-1c0-0.5-0.1-1.1-0.2-1.5c-0.1-0.4-0.3-0.7-0.5-1c-0.2-0.3-0.6-0.5-1-0.6
		c-0.4-0.1-1-0.2-1.6-0.2c-0.9,0-1.6,0.1-2.2,0.3c-0.6,0.2-1.3,0.4-1.8,0.6c-0.5,0.2-0.9,0.4-1.3,0.6c-0.3,0.2-0.6,0.3-0.9,0.3
		c-0.1,0-0.3,0-0.4-0.1c-0.1-0.1-0.2-0.2-0.3-0.4c-0.1-0.2-0.1-0.4-0.2-0.6c0-0.2-0.1-0.5-0.1-0.8c0-0.4,0-0.7,0.1-0.9
		c0.1-0.2,0.2-0.4,0.4-0.6c0.2-0.2,0.5-0.4,0.9-0.6c0.4-0.2,1.1-0.4,1.7-0.6c0.6-0.2,1.3-0.3,2.1-0.5c0.7-0.1,1.5-0.2,2.3-0.2
		c1.3,0,2.6,0.1,3.6,0.4s1.8,0.7,2.4,1.3c0.6,0.5,1.2,1.3,1.4,2.2c0.2,0.9,0.4,2,0.4,3.2v11.9L225.7,27.4L225.7,27.4z M220.7,19.8
		h-1.9c-0.9,0-1.5,0.1-2.1,0.2c-0.5,0.1-1,0.3-1.3,0.5c-0.3,0.2-0.6,0.5-0.9,0.9c-0.2,0.3-0.2,0.7-0.2,1.2c0,0.7,0.2,1.3,0.7,1.8
		c0.5,0.4,1.2,0.6,2,0.6c0.7,0,1.4-0.2,2-0.5c0.6-0.3,1.2-0.9,1.8-1.6L220.7,19.8L220.7,19.8z"/>
	<path class="st0" d="M247.8,27.4c0,0.1,0,0.2-0.1,0.3c-0.1,0.1-0.2,0.2-0.4,0.2s-0.4,0.1-0.7,0.1c-0.3,0-0.8,0-1.3,0
		c-0.5,0-0.9,0-1.3,0c-0.3,0-0.6-0.1-0.7-0.1c-0.2-0.1-0.3-0.1-0.4-0.2c-0.1-0.1-0.1-0.2-0.1-0.3V17.2c0-0.9-0.1-1.6-0.2-2
		c-0.1-0.5-0.3-0.9-0.5-1.3c-0.2-0.3-0.5-0.6-0.9-0.9c-0.4-0.2-0.9-0.3-1.4-0.3c-0.6,0-1.3,0.2-1.9,0.7c-0.6,0.4-1.4,1.2-2,2v11.9
		c0,0.1,0,0.2-0.1,0.3c-0.1,0.1-0.2,0.2-0.4,0.2c-0.2,0.1-0.4,0.1-0.7,0.1c-0.3,0-0.7,0-1.3,0c-0.5,0-1,0-1.3,0s-0.5-0.1-0.7-0.1
		c-0.2-0.1-0.3-0.1-0.4-0.2c-0.1-0.1-0.1-0.2-0.1-0.3V9.6c0-0.1,0-0.2,0.1-0.3c0.1-0.1,0.2-0.2,0.3-0.2c0.2-0.1,0.4-0.1,0.6-0.1
		c0.3,0,0.6,0,1.1,0s0.7,0,1,0c0.3,0,0.5,0.1,0.6,0.1c0.1,0.1,0.3,0.1,0.3,0.2c0.1,0.1,0.1,0.2,0.1,0.3v2.1c0.9-1.1,2-1.9,3-2.4
		c1.1-0.5,2.1-0.8,3.2-0.8c1.3,0,2.2,0.2,3,0.6c0.8,0.4,1.5,0.9,2,1.7c0.5,0.7,0.9,1.5,1.2,2.4c0.2,0.9,0.3,2,0.3,3.4L247.8,27.4
		L247.8,27.4L247.8,27.4z"/>
	<path class="st0" d="M269.6,27.4c0,0.1,0,0.3-0.1,0.4c-0.1,0.1-0.2,0.2-0.3,0.2c-0.2,0.1-0.4,0.1-0.6,0.1c-0.3,0-0.6,0-1.1,0
		s-0.7,0-1,0c-0.3,0-0.5-0.1-0.6-0.1c-0.2-0.1-0.3-0.1-0.3-0.2c-0.1-0.1-0.1-0.2-0.1-0.4v-2c-0.9,0.9-1.9,1.8-3,2.3
		c-1,0.5-2.1,0.9-3.4,0.9c-1.4,0-2.5-0.2-3.5-0.9c-0.9-0.5-1.7-1.3-2.3-2.1c-0.6-0.9-1-1.9-1.3-3.1c-0.3-1.2-0.4-2.4-0.4-3.8
		c0-1.6,0.2-3,0.5-4.3c0.3-1.3,0.9-2.3,1.5-3.3c0.6-0.9,1.5-1.6,2.4-2.1c0.9-0.5,2.1-0.8,3.4-0.8c1.1,0,1.9,0.2,2.7,0.6
		c0.9,0.4,1.6,1.1,2.4,1.8V1c0-0.1,0-0.2,0.1-0.3c0.1-0.1,0.2-0.2,0.4-0.3c0.2-0.1,0.4-0.1,0.7-0.2c0.3-0.1,0.7-0.1,1.3-0.1
		c0.5,0,0.9,0,1.3,0.1c0.3,0.1,0.5,0.1,0.7,0.2c0.2,0.1,0.3,0.2,0.4,0.3c0.1,0.1,0.1,0.2,0.1,0.3V27.4z M264.6,15.4
		c-0.8-0.9-1.4-1.6-2.1-2.1c-0.6-0.5-1.4-0.7-2.1-0.7c-0.6,0-1.3,0.2-1.7,0.5c-0.5,0.3-0.8,0.7-1.2,1.3c-0.3,0.5-0.5,1.2-0.6,1.8
		c-0.1,0.6-0.2,1.4-0.2,2.1c0,0.8,0.1,1.5,0.2,2.2c0.1,0.7,0.3,1.4,0.6,1.9c0.3,0.5,0.6,0.9,1.1,1.4c0.4,0.4,1,0.5,1.7,0.5
		c0.3,0,0.7,0,1.1-0.1c0.3-0.1,0.6-0.3,1-0.5c0.3-0.2,0.7-0.5,1.1-0.8c0.3-0.3,0.7-0.9,1.2-1.4C264.6,21.4,264.6,15.4,264.6,15.4z"
		/>
	<path class="st0" d="M291.2,18c0,0.6-0.1,1.1-0.4,1.4c-0.3,0.3-0.6,0.4-1.2,0.4h-10.8c0,0.7,0.1,1.5,0.3,2.1s0.4,1.2,0.9,1.6
		c0.4,0.4,0.9,0.7,1.5,0.9c0.6,0.2,1.4,0.3,2.2,0.3c0.8,0,1.7-0.1,2.3-0.2c0.6-0.1,1.3-0.3,1.7-0.4c0.5-0.1,0.8-0.3,1.3-0.4
		c0.3-0.1,0.6-0.2,0.7-0.2c0.1,0,0.2,0,0.3,0.1c0.1,0,0.1,0.1,0.2,0.2c0,0.1,0.1,0.3,0.1,0.5s0,0.5,0,0.9c0,0.3,0,0.5,0,0.7
		c0,0.2,0,0.4-0.1,0.5c0,0.1-0.1,0.3-0.1,0.4c-0.1,0.1-0.1,0.2-0.2,0.3c-0.1,0.1-0.3,0.2-0.7,0.4c-0.4,0.2-0.9,0.3-1.5,0.4
		c-0.6,0.1-1.3,0.3-2.1,0.4c-0.7,0.1-1.6,0.2-2.5,0.2c-1.6,0-3-0.2-4.2-0.6c-1.2-0.4-2.2-1-3-1.8c-0.7-0.7-1.4-1.9-1.8-3
		c-0.4-1.3-0.6-2.7-0.6-4.4c0-1.6,0.2-3,0.6-4.3c0.4-1.3,1.1-2.3,1.8-3.3c0.7-0.9,1.8-1.6,2.8-2c1.2-0.4,2.4-0.7,3.8-0.7
		c1.5,0,2.7,0.2,3.8,0.6c1,0.4,1.9,1,2.6,1.8c0.6,0.7,1.2,1.7,1.5,2.7c0.3,1.1,0.5,2.2,0.5,3.5V18L291.2,18L291.2,18z M286.3,16.5
		c0-1.4-0.2-2.5-0.9-3.4c-0.6-0.8-1.6-1.3-2.8-1.3c-0.6,0-1.2,0.1-1.7,0.3c-0.5,0.2-0.9,0.5-1.2,0.9c-0.3,0.4-0.5,0.9-0.7,1.5
		c-0.2,0.5-0.3,1.1-0.3,1.8h7.6V16.5z"/>
	<path class="st0" d="M306.8,11.2c0,0.5,0,0.9,0,1.2c0,0.3-0.1,0.5-0.1,0.7c0,0.2-0.1,0.3-0.2,0.3c-0.1,0.1-0.2,0.1-0.3,0.1
		c-0.1,0-0.2,0-0.3-0.1c-0.1,0-0.3-0.1-0.4-0.1c-0.2-0.1-0.3-0.1-0.5-0.1c-0.2,0-0.4-0.1-0.6-0.1c-0.3,0-0.5,0.1-0.8,0.2
		c-0.3,0.1-0.5,0.3-0.9,0.5c-0.3,0.2-0.6,0.5-0.9,0.9c-0.3,0.4-0.6,0.9-1.1,1.5v11.1c0,0.1,0,0.2-0.1,0.3c-0.1,0.1-0.2,0.2-0.4,0.2
		c-0.2,0.1-0.4,0.1-0.7,0.1c-0.3,0-0.7,0-1.3,0c-0.5,0-0.9,0-1.3,0c-0.3,0-0.5-0.1-0.7-0.1c-0.2-0.1-0.3-0.1-0.4-0.2
		c-0.1-0.1-0.1-0.2-0.1-0.3V9.6c0-0.1,0-0.2,0.1-0.3c0.1-0.1,0.2-0.2,0.3-0.2c0.2-0.1,0.4-0.1,0.6-0.1c0.3,0,0.6,0,1.1,0s0.7,0,1,0
		c0.3,0,0.5,0.1,0.6,0.1c0.1,0.1,0.3,0.1,0.3,0.2c0.1,0.1,0.1,0.2,0.1,0.3v2.2c0.4-0.6,0.9-1.3,1.4-1.7s0.8-0.7,1.2-1
		c0.3-0.3,0.7-0.4,1.2-0.5c0.4-0.1,0.7-0.1,1.2-0.1c0.2,0,0.3,0,0.5,0s0.4,0.1,0.6,0.1s0.4,0.1,0.5,0.2c0.2,0.1,0.3,0.1,0.3,0.2
		c0.1,0.1,0.1,0.1,0.2,0.2c0,0.1,0.1,0.2,0.1,0.3c0,0.1,0,0.3,0.1,0.6C307.1,10.4,306.8,10.7,306.8,11.2z"/>
	<path class="st0" d="M24.3,14.8c0,2.1-0.2,4-0.7,5.7c-0.5,1.7-1.3,3.2-2.2,4.3c-0.9,1.2-2.2,2.1-3.7,2.7c-1.5,0.6-3.3,0.9-5.1,0.9
		c-2,0-3.7-0.3-5.1-0.8C6,27,4.9,26.2,3.9,25.1C3,24,2.4,22.6,1.8,21c-0.5-1.6-0.8-3.6-0.8-5.7c0-2,0.2-3.9,0.8-5.6
		c0.5-1.7,1.3-3,2.2-4.2c1.1-1.3,2.3-2.1,3.8-2.7C9.3,2.2,11,1.8,13,1.8c1.9,0,3.6,0.3,4.9,0.9s2.6,1.4,3.6,2.5
		c0.9,1,1.7,2.4,2.1,4.1C24,10.9,24.3,12.8,24.3,14.8z M20.7,15.1c0-1.5-0.1-2.8-0.4-4.1C20,9.8,19.5,8.7,19,7.8
		c-0.6-0.9-1.4-1.7-2.4-2.2c-1.1-0.5-2.3-0.8-3.8-0.8C11.3,4.8,10,5.1,9,5.7c-1,0.5-1.8,1.3-2.4,2.2c-0.6,0.9-1.1,2-1.4,3.3
		c-0.3,1.3-0.4,2.5-0.4,3.9c0,1.5,0.1,3,0.4,4.2c0.2,1.3,0.6,2.4,1.3,3.4c0.6,0.9,1.4,1.7,2.4,2.2c1,0.5,2.3,0.8,3.8,0.8
		c1.5,0,2.7-0.3,3.8-0.9c1.1-0.5,1.9-1.4,2.5-2.3c0.6-0.9,1.1-2.1,1.4-3.4C20.6,17.9,20.7,16.5,20.7,15.1z"/>
	<path class="st0" d="M45.9,18.3c0,1.6-0.2,3-0.5,4.2c-0.3,1.3-0.9,2.3-1.5,3.1c-0.6,0.9-1.5,1.6-2.4,2c-0.9,0.5-2.1,0.7-3.4,0.7
		c-0.5,0-1.1-0.1-1.5-0.2c-0.4-0.1-0.8-0.1-1.3-0.3c-0.4-0.2-0.9-0.5-1.3-0.9s-0.8-0.7-1.4-1.3v9c0,0.1,0,0.2-0.1,0.3
		c-0.1,0.1-0.1,0.1-0.2,0.2c-0.1,0.1-0.3,0.1-0.5,0.1s-0.5,0-0.9,0s-0.6,0-0.9,0c-0.2,0-0.4-0.1-0.5-0.1c-0.1,0-0.2-0.1-0.2-0.2
		c0-0.1-0.1-0.2-0.1-0.3V9.6c0-0.1,0-0.2,0.1-0.3c0.1-0.1,0.1-0.1,0.2-0.2c0.1-0.1,0.3-0.1,0.4-0.1c0.2,0,0.4,0,0.6,0
		c0.3,0,0.5,0,0.7,0c0.2,0,0.3,0.1,0.4,0.1C31.9,9,32,9.1,32,9.2c0,0.1,0.1,0.2,0.1,0.3V12c0.5-0.5,1.1-1,1.6-1.5
		c0.5-0.4,1-0.7,1.6-1.1c0.5-0.3,1-0.5,1.6-0.6c0.5-0.1,1.2-0.2,1.7-0.2c1.3,0,2.4,0.2,3.4,0.7c0.9,0.5,1.7,1.2,2.2,2.1
		c0.6,0.9,1,1.9,1.3,3C45.8,15.8,45.9,17,45.9,18.3z M42.5,18.7c0-0.9-0.1-1.8-0.2-2.6c-0.1-0.9-0.4-1.6-0.7-2.3
		c-0.3-0.6-0.9-1.2-1.4-1.6c-0.5-0.4-1.3-0.6-2.2-0.6c-0.4,0-0.8,0.1-1.3,0.2c-0.4,0.1-0.9,0.3-1.3,0.6c-0.4,0.3-0.8,0.6-1.3,1.1
		c-0.4,0.4-0.9,0.9-1.5,1.6v7.2c0.9,1.2,1.8,2,2.6,2.5c0.8,0.6,1.7,0.9,2.6,0.9c0.9,0,1.6-0.2,2.1-0.6c0.5-0.4,1.1-0.9,1.5-1.6
		c0.4-0.6,0.6-1.4,0.9-2.2C42.5,20.3,42.5,19.6,42.5,18.7z"/>
	<path class="st0" d="M66.3,17.9c0,0.5-0.1,0.8-0.4,1.2c-0.2,0.2-0.5,0.3-0.9,0.3H53.2c0,1,0.1,1.9,0.3,2.7c0.2,0.8,0.5,1.5,1,2.1
		c0.5,0.6,1.1,1,1.8,1.4C57,25.9,58,26,59.1,26c0.9,0,1.6-0.1,2.3-0.2c0.6-0.1,1.3-0.3,1.8-0.4c0.5-0.2,0.8-0.3,1.2-0.4
		c0.3-0.1,0.5-0.2,0.7-0.2c0.1,0,0.2,0,0.2,0.1c0.1,0,0.1,0.1,0.2,0.2c0,0.1,0.1,0.2,0.1,0.4c0,0.2,0,0.4,0,0.6s0,0.3,0,0.4
		c0,0.1,0,0.2,0,0.3c0,0.1-0.1,0.2-0.1,0.3c0,0.1-0.1,0.1-0.2,0.2c-0.1,0.1-0.3,0.2-0.6,0.3c-0.3,0.2-0.9,0.3-1.4,0.5
		c-0.5,0.2-1.3,0.3-2,0.4c-0.7,0.1-1.6,0.2-2.4,0.2c-1.5,0-2.7-0.2-3.9-0.6c-1.2-0.4-2.1-1.1-2.8-1.9c-0.7-0.9-1.4-1.8-1.7-3
		c-0.3-1.3-0.6-2.6-0.6-4.3c0-1.6,0.2-3,0.6-4.2s0.9-2.3,1.7-3.2c0.7-0.8,1.7-1.5,2.7-2c1-0.4,2.3-0.7,3.6-0.7
		c1.4,0,2.6,0.2,3.6,0.6c0.9,0.4,1.8,1.1,2.4,1.8c0.6,0.7,1.2,1.7,1.4,2.7c0.3,1,0.4,2.1,0.4,3.4L66.3,17.9
		C66.2,17.9,66.3,17.9,66.3,17.9z M63,16.8c0-1.8-0.3-3-1.2-4.1c-0.7-0.9-2-1.5-3.6-1.5c-0.8,0-1.6,0.1-2.1,0.4
		c-0.6,0.3-1.2,0.7-1.6,1.3c-0.4,0.5-0.7,1.1-0.9,1.8c-0.2,0.6-0.3,1.4-0.4,2.1C53.2,16.8,63,16.8,63,16.8z"/>
	<path class="st0" d="M86.8,27.7c0,0.1,0,0.2-0.1,0.3c-0.1,0.1-0.1,0.1-0.2,0.1c-0.1,0-0.3,0.1-0.5,0.1s-0.5,0-0.9,0
		c-0.3,0-0.6,0-0.8,0c-0.2,0-0.4-0.1-0.5-0.1c-0.1,0-0.2-0.1-0.2-0.2c0-0.1-0.1-0.2-0.1-0.3V17c0-1.1-0.1-1.9-0.2-2.5
		c-0.1-0.6-0.4-1.2-0.7-1.6c-0.3-0.4-0.7-0.8-1.2-1c-0.5-0.2-1.1-0.3-1.7-0.3c-0.9,0-1.7,0.3-2.5,0.9c-0.9,0.5-1.7,1.5-2.6,2.6
		v12.6c0,0.1,0,0.2-0.1,0.3c-0.1,0.1,0,0.1-0.1,0.1c-0.1,0-0.3,0.1-0.5,0.1s-0.5,0-0.8,0c-0.3,0-0.6,0-0.9,0
		c-0.2,0-0.4-0.1-0.5-0.1c-0.1,0-0.2-0.1-0.2-0.2c0-0.1-0.1-0.2-0.1-0.3v-18c0-0.1,0-0.2,0.1-0.3c0-0.1,0.1-0.1,0.2-0.2
		c0.1-0.1,0.3-0.1,0.4-0.1c0.2,0,0.4,0,0.7,0c0.3,0,0.5,0,0.7,0c0.2,0,0.3,0.1,0.4,0.1c0.1,0.1,0.2,0.1,0.2,0.2
		c0,0.1,0.1,0.2,0.1,0.3V12c1.1-1.2,2-2,3-2.5c1.1-0.5,2-0.8,3-0.8c1.2,0,2.2,0.2,3.1,0.6c0.8,0.4,1.5,1,2,1.7
		c0.5,0.7,0.9,1.5,1.1,2.4c0.2,0.9,0.3,2,0.3,3.3v11.1H86.8L86.8,27.7z"/>
	<path fill="#DB4D00" class="st1" d="M25.4,66.6c0,2.1-0.4,3.9-1.1,5.4c-0.8,1.5-1.8,2.8-3.1,3.9c-1.3,1-2.8,1.8-4.6,2.3c-1.7,0.5-3.6,0.8-5.6,0.8
		c-1.3,0-2.6-0.1-3.8-0.4c-1.1-0.2-2.1-0.5-3-0.8c-0.9-0.3-1.6-0.6-2.2-1c-0.6-0.3-1-0.6-1.3-0.9c-0.2-0.3-0.4-0.6-0.5-1.1
		C0,74.2,0,73.5,0,72.6C0,72,0,71.5,0.1,71c0-0.4,0.1-0.8,0.2-1s0.2-0.4,0.4-0.6c0.2-0.1,0.3-0.1,0.5-0.1c0.3,0,0.7,0.1,1.2,0.5
		c0.5,0.3,1.2,0.7,2,1.1c0.8,0.4,1.8,0.8,2.9,1.1c1.1,0.3,2.4,0.5,3.9,0.5c1,0,1.8-0.1,2.6-0.3c0.8-0.2,1.4-0.6,2-1
		c0.5-0.4,0.9-0.9,1.2-1.5s0.4-1.3,0.4-2.1c0-0.9-0.2-1.7-0.7-2.3c-0.5-0.6-1.1-1.2-1.9-1.7c-0.8-0.5-1.7-1-2.6-1.4
		c-1-0.4-2-0.9-3-1.4c-1-0.5-2.1-1-3-1.6c-1-0.6-1.9-1.3-2.6-2.2c-0.8-0.9-1.4-1.8-1.9-3c-0.5-1.2-0.7-2.6-0.7-4.2
		c0-1.9,0.3-3.5,1-4.9c0.7-1.4,1.6-2.6,2.8-3.5c1.2-0.9,2.6-1.6,4.1-2.1c1.6-0.5,3.3-0.7,5.1-0.7c0.9,0,1.8,0.1,2.8,0.2
		c0.9,0.1,1.8,0.3,2.6,0.6c0.8,0.2,1.5,0.5,2.1,0.8c0.6,0.3,1,0.6,1.2,0.8c0.2,0.2,0.3,0.4,0.4,0.5c0.1,0.2,0.1,0.3,0.2,0.6
		c0.1,0.2,0.1,0.5,0.1,0.9c0,0.4,0,0.8,0,1.3c0,0.6,0,1.1,0,1.5c0,0.4-0.1,0.7-0.1,1c-0.1,0.3-0.2,0.5-0.3,0.6
		c-0.1,0.1-0.3,0.2-0.5,0.2c-0.2,0-0.6-0.1-1.1-0.4c-0.5-0.3-1.1-0.6-1.8-0.9c-0.7-0.3-1.5-0.6-2.4-0.9c-0.9-0.3-1.9-0.4-3-0.4
		c-0.9,0-1.6,0.1-2.3,0.3c-0.6,0.2-1.2,0.5-1.6,0.9c-0.4,0.4-0.8,0.8-0.9,1.3c-0.2,0.5-0.3,1.1-0.3,1.7c0,0.9,0.2,1.6,0.7,2.2
		c0.5,0.6,1.1,1.2,1.9,1.7c0.8,0.5,1.7,0.9,2.7,1.4c1,0.4,2,0.9,3,1.4c1.1,0.5,2.1,1,3.1,1.6c1,0.6,1.9,1.3,2.7,2.2
		c0.8,0.9,1.4,1.8,1.9,3C25.2,63.7,25.4,65,25.4,66.6L25.4,66.6z M53.8,77.3c0,0.3-0.1,0.5-0.3,0.7c-0.2,0.2-0.5,0.3-0.9,0.4
		c-0.4,0.1-1.1,0.1-1.9,0.1c-0.9,0-1.6,0-2-0.1S48,78.1,47.8,78c-0.2-0.2-0.3-0.4-0.3-0.7v-2.1c-1.1,1.2-2.3,2.1-3.8,2.7
		c-1.4,0.7-3,1-4.7,1c-1.4,0-2.7-0.2-3.9-0.6c-1.2-0.4-2.2-0.9-3.1-1.7c-0.9-0.7-1.5-1.6-2-2.7c-0.5-1.1-0.7-2.3-0.7-3.8
		c0-1.6,0.3-2.9,0.9-4.1c0.6-1.2,1.5-2.1,2.7-2.9c1.2-0.8,2.7-1.3,4.5-1.7c1.8-0.4,3.9-0.5,6.3-0.5h2.6v-1.6c0-0.9-0.1-1.6-0.2-2.2
		c-0.2-0.6-0.5-1.2-0.9-1.6c-0.4-0.4-0.9-0.7-1.6-0.9c-0.6-0.2-1.5-0.3-2.4-0.3c-1.3,0-2.4,0.1-3.4,0.4c-1,0.3-1.9,0.6-2.6,0.9
		c-0.8,0.3-1.4,0.6-1.9,0.9c-0.5,0.3-0.9,0.4-1.2,0.4c-0.2,0-0.4-0.1-0.6-0.2c-0.2-0.1-0.3-0.3-0.4-0.6c-0.1-0.3-0.2-0.6-0.2-1
		c-0.1-0.4-0.1-0.8-0.1-1.3c0-0.6,0-1.1,0.1-1.5c0.1-0.4,0.3-0.7,0.6-1c0.3-0.3,0.8-0.6,1.5-0.9c0.7-0.4,1.5-0.7,2.5-1
		c0.9-0.3,2-0.6,3.1-0.8c1.1-0.2,2.3-0.3,3.4-0.3c2.1,0,3.9,0.2,5.4,0.6c1.5,0.4,2.7,1.1,3.7,1.9c1,0.9,1.7,1.9,2.1,3.3
		c0.4,1.3,0.6,2.9,0.6,4.8V77.3z M46.3,65.8h-2.9c-1.2,0-2.2,0.1-3.1,0.3c-0.9,0.2-1.6,0.4-2.1,0.8c-0.5,0.4-0.9,0.8-1.2,1.3
		c-0.3,0.5-0.4,1.1-0.4,1.7c0,1.1,0.4,2,1.1,2.6c0.7,0.7,1.7,1,3,1c1,0,2-0.3,2.9-0.8c0.9-0.5,1.8-1.3,2.7-2.4
		C46.3,70.4,46.3,65.8,46.3,65.8z M104,77.2c0,0.2,0,0.4-0.2,0.5c-0.1,0.2-0.3,0.3-0.6,0.4c-0.3,0.1-0.7,0.2-1.1,0.2
		c-0.5,0-1.1,0.1-1.8,0.1c-0.8,0-1.4,0-1.9-0.1c-0.5,0-0.9-0.1-1.2-0.2c-0.3-0.1-0.5-0.2-0.6-0.4c-0.1-0.1-0.2-0.3-0.2-0.5V61.3
		c0-0.9-0.1-1.7-0.3-2.5c-0.2-0.7-0.4-1.4-0.8-1.9c-0.3-0.5-0.8-0.9-1.3-1.3c-0.5-0.3-1.2-0.4-1.9-0.4c-0.9,0-1.8,0.4-2.7,1.1
		c-0.9,0.7-1.9,1.7-3,3v17.8c0,0.2,0,0.4-0.2,0.5c-0.1,0.2-0.3,0.3-0.6,0.4c-0.3,0.1-0.7,0.2-1.2,0.2c-0.5,0-1.1,0.1-1.8,0.1
		c-0.8,0-1.4,0-1.8-0.1c-0.5,0-0.9-0.1-1.2-0.2c-0.3-0.1-0.5-0.2-0.6-0.4c-0.1-0.1-0.2-0.3-0.2-0.5V61.3c0-0.9-0.1-1.7-0.3-2.5
		c-0.2-0.7-0.4-1.4-0.8-1.9c-0.4-0.5-0.8-0.9-1.3-1.3c-0.5-0.3-1.2-0.4-1.9-0.4c-0.9,0-1.8,0.4-2.8,1.1c-0.9,0.7-1.9,1.7-3,3v17.8
		c0,0.2,0,0.4-0.2,0.5c-0.1,0.2-0.3,0.3-0.6,0.4c-0.3,0.1-0.7,0.2-1.1,0.2c-0.5,0-1.1,0.1-1.8,0.1c-0.7,0-1.3,0-1.8-0.1
		c-0.5,0-0.9-0.1-1.1-0.2c-0.3-0.1-0.5-0.2-0.6-0.4c-0.1-0.1-0.2-0.3-0.2-0.5V50.4c0-0.2,0-0.4,0.1-0.5c0.1-0.2,0.3-0.3,0.5-0.4
		c0.3-0.1,0.6-0.2,1-0.2c0.4,0,0.9-0.1,1.6-0.1c0.6,0,1.2,0,1.6,0.1c0.4,0,0.8,0.1,1,0.2c0.2,0.1,0.4,0.2,0.5,0.4
		c0.1,0.1,0.1,0.3,0.1,0.5v3.1c1.5-1.6,3-2.8,4.4-3.6c1.5-0.8,3-1.2,4.6-1.2c1.1,0,2.1,0.1,3,0.4c0.9,0.2,1.7,0.5,2.4,1
		c0.7,0.4,1.3,0.9,1.8,1.5c0.5,0.6,0.9,1.3,1.3,2c0.8-0.9,1.6-1.6,2.4-2.2c0.8-0.6,1.5-1.1,2.3-1.5c0.7-0.4,1.5-0.7,2.2-0.9
		c0.8-0.2,1.5-0.3,2.3-0.3c1.8,0,3.3,0.3,4.5,0.9c1.2,0.6,2.2,1.4,3,2.5c0.8,1,1.3,2.2,1.6,3.6c0.3,1.4,0.5,2.9,0.5,4.4L104,77.2
		L104,77.2z M134.2,77.3c0,0.3-0.1,0.5-0.3,0.7c-0.2,0.2-0.5,0.3-1,0.4c-0.4,0.1-1.1,0.1-1.9,0.1c-0.9,0-1.6,0-2-0.1
		c-0.4-0.1-0.7-0.2-0.9-0.4c-0.2-0.2-0.3-0.4-0.3-0.7v-2.1c-1.1,1.2-2.4,2.1-3.8,2.7c-1.4,0.7-3,1-4.7,1c-1.4,0-2.7-0.2-3.9-0.6
		c-1.2-0.4-2.2-0.9-3.1-1.7c-0.9-0.7-1.5-1.6-2-2.7c-0.5-1.1-0.7-2.3-0.7-3.8c0-1.6,0.3-2.9,0.9-4.1c0.6-1.2,1.5-2.1,2.7-2.9
		c1.2-0.8,2.7-1.3,4.5-1.7c1.8-0.4,3.9-0.5,6.3-0.5h2.6v-1.6c0-0.9-0.1-1.6-0.3-2.2c-0.2-0.6-0.4-1.2-0.8-1.6
		c-0.4-0.4-0.9-0.7-1.6-0.9c-0.7-0.2-1.5-0.3-2.4-0.3c-1.3,0-2.4,0.1-3.4,0.4c-1,0.3-1.9,0.6-2.6,0.9c-0.8,0.3-1.4,0.6-1.9,0.9
		c-0.5,0.3-0.9,0.4-1.2,0.4c-0.2,0-0.4-0.1-0.6-0.2c-0.2-0.1-0.3-0.3-0.4-0.6c-0.1-0.3-0.2-0.6-0.3-1c0-0.4-0.1-0.8-0.1-1.3
		c0-0.6,0-1.1,0.2-1.5c0.1-0.4,0.3-0.7,0.6-1c0.3-0.3,0.8-0.6,1.5-0.9c0.7-0.4,1.5-0.7,2.5-1c0.9-0.3,2-0.6,3.1-0.8
		c1.1-0.2,2.2-0.3,3.4-0.3c2.1,0,3.9,0.2,5.4,0.6c1.5,0.4,2.7,1.1,3.7,1.9c1,0.9,1.7,1.9,2.1,3.3c0.4,1.3,0.7,2.9,0.7,4.8
		L134.2,77.3L134.2,77.3z M126.8,65.8h-2.9c-1.2,0-2.2,0.1-3.1,0.3c-0.9,0.2-1.6,0.4-2.1,0.8c-0.5,0.4-0.9,0.8-1.2,1.3
		c-0.2,0.5-0.4,1.1-0.4,1.7c0,1.1,0.4,2,1.1,2.6c0.7,0.7,1.7,1,3,1c1.1,0,2-0.3,2.9-0.8c0.9-0.5,1.8-1.3,2.7-2.4L126.8,65.8
		L126.8,65.8z M167.3,77.2c0,0.2-0.1,0.4-0.2,0.5c-0.1,0.2-0.3,0.3-0.6,0.4c-0.3,0.1-0.7,0.2-1.2,0.2c-0.5,0-1.1,0.1-1.8,0.1
		c-0.8,0-1.4,0-1.9-0.1s-0.9-0.1-1.2-0.2c-0.3-0.1-0.5-0.2-0.6-0.4c-0.1-0.1-0.2-0.3-0.2-0.5V61.9c0-1.3-0.1-2.3-0.3-3.1
		c-0.2-0.7-0.4-1.4-0.8-1.9c-0.4-0.5-0.9-0.9-1.4-1.3c-0.6-0.3-1.2-0.4-2-0.4c-0.9,0-1.9,0.4-2.9,1.1c-1,0.7-2,1.7-3,3v17.8
		c0,0.2-0.1,0.4-0.2,0.5c-0.1,0.2-0.3,0.3-0.6,0.4c-0.3,0.1-0.7,0.2-1.2,0.2s-1.1,0.1-1.8,0.1c-0.8,0-1.4,0-1.8-0.1
		s-0.9-0.1-1.2-0.2c-0.3-0.1-0.5-0.2-0.6-0.4c-0.1-0.1-0.2-0.3-0.2-0.5V50.4c0-0.2,0-0.4,0.1-0.5c0.1-0.2,0.3-0.3,0.5-0.4
		c0.3-0.1,0.6-0.2,1-0.2c0.4,0,0.9-0.1,1.6-0.1c0.6,0,1.2,0,1.6,0.1c0.4,0,0.8,0.1,1,0.2c0.2,0.1,0.4,0.2,0.5,0.4
		c0.1,0.1,0.2,0.3,0.2,0.5v3.1c1.5-1.6,3-2.8,4.5-3.6c1.5-0.8,3.1-1.2,4.8-1.2c1.8,0,3.4,0.3,4.6,0.9c1.3,0.6,2.3,1.4,3,2.5
		c0.8,1,1.3,2.2,1.7,3.6c0.3,1.4,0.5,3,0.5,5L167.3,77.2L167.3,77.2z M200.2,77.2c0,0.2,0,0.4-0.1,0.6c-0.1,0.1-0.3,0.3-0.5,0.4
		c-0.3,0.1-0.6,0.2-1,0.2c-0.4,0-0.9,0.1-1.5,0.1c-0.6,0-1.2,0-1.6-0.1c-0.4,0-0.7-0.1-1-0.2c-0.3-0.1-0.4-0.2-0.5-0.4
		c-0.1-0.2-0.2-0.4-0.2-0.6v-3c-1.4,1.5-2.8,2.6-4.3,3.5c-1.5,0.8-3.2,1.2-5,1.2c-2,0-3.8-0.4-5.2-1.2c-1.4-0.8-2.6-1.8-3.5-3.2
		c-0.9-1.3-1.5-2.9-1.9-4.7c-0.4-1.8-0.6-3.7-0.6-5.6c0-2.4,0.3-4.5,0.8-6.4c0.5-1.9,1.3-3.5,2.2-4.9c1-1.3,2.2-2.4,3.7-3.1
		c1.5-0.7,3.1-1.1,5.1-1.1c1.5,0,2.9,0.3,4.1,0.9c1.2,0.6,2.4,1.5,3.6,2.7V37.8c0-0.2,0-0.4,0.2-0.5c0.1-0.1,0.3-0.3,0.6-0.4
		c0.3-0.1,0.7-0.2,1.2-0.2c0.5-0.1,1.1-0.1,1.8-0.1c0.7,0,1.3,0,1.8,0.1c0.5,0,0.9,0.1,1.1,0.2c0.3,0.1,0.5,0.3,0.6,0.4
		c0.1,0.2,0.2,0.4,0.2,0.5L200.2,77.2L200.2,77.2z M192.7,59.3c-1.1-1.4-2.1-2.4-3.1-3.1c-1-0.7-2-1.1-3.1-1.1c-1,0-1.8,0.2-2.5,0.7
		c-0.7,0.5-1.3,1.1-1.7,2c-0.4,0.8-0.8,1.7-1,2.7c-0.2,1-0.3,2.1-0.3,3.1c0,1.1,0.1,2.2,0.3,3.3c0.2,1.1,0.5,2,0.9,2.9
		c0.4,0.8,1,1.5,1.7,2c0.7,0.5,1.5,0.8,2.6,0.8c0.5,0,1-0.1,1.5-0.2c0.5-0.1,1-0.4,1.5-0.7c0.5-0.3,1-0.8,1.6-1.3
		c0.5-0.6,1.1-1.2,1.8-2L192.7,59.3L192.7,59.3z M230.6,77.3c0,0.3-0.1,0.5-0.3,0.7c-0.2,0.2-0.5,0.3-1,0.4
		c-0.4,0.1-1.1,0.1-1.9,0.1c-0.9,0-1.6,0-2-0.1c-0.4-0.1-0.7-0.2-0.9-0.4c-0.2-0.2-0.3-0.4-0.3-0.7v-2.1c-1.1,1.2-2.4,2.1-3.8,2.7
		c-1.4,0.7-3,1-4.7,1c-1.4,0-2.7-0.2-3.9-0.6c-1.2-0.4-2.2-0.9-3.1-1.7c-0.9-0.7-1.5-1.6-2-2.7c-0.5-1.1-0.7-2.3-0.7-3.8
		c0-1.6,0.3-2.9,0.9-4.1c0.6-1.2,1.5-2.1,2.7-2.9c1.2-0.8,2.7-1.3,4.5-1.7c1.8-0.4,3.9-0.5,6.3-0.5h2.6v-1.6c0-0.9-0.1-1.6-0.3-2.2
		c-0.1-0.6-0.4-1.2-0.8-1.6c-0.4-0.4-0.9-0.7-1.6-0.9c-0.6-0.2-1.5-0.3-2.4-0.3c-1.3,0-2.4,0.1-3.4,0.4c-1,0.3-1.9,0.6-2.6,0.9
		c-0.8,0.3-1.4,0.6-1.9,0.9c-0.5,0.3-0.9,0.4-1.2,0.4c-0.2,0-0.4-0.1-0.6-0.2c-0.2-0.1-0.3-0.3-0.4-0.6c-0.1-0.3-0.2-0.6-0.3-1
		c0-0.4-0.1-0.8-0.1-1.3c0-0.6,0-1.1,0.1-1.5c0.1-0.4,0.3-0.7,0.6-1c0.3-0.3,0.8-0.6,1.5-0.9c0.7-0.4,1.5-0.7,2.5-1
		c0.9-0.3,2-0.6,3.1-0.8c1.1-0.2,2.3-0.3,3.4-0.3c2.1,0,3.9,0.2,5.4,0.6c1.5,0.4,2.7,1.1,3.7,1.9c1,0.9,1.7,1.9,2.1,3.3
		c0.4,1.3,0.6,2.9,0.6,4.8L230.6,77.3L230.6,77.3z M223.1,65.8h-2.9c-1.2,0-2.2,0.1-3.1,0.3c-0.9,0.2-1.5,0.4-2.1,0.8
		c-0.6,0.4-0.9,0.8-1.2,1.3c-0.3,0.5-0.4,1.1-0.4,1.7c0,1.1,0.4,2,1.1,2.6c0.7,0.7,1.7,1,3,1c1,0,2-0.3,2.9-0.8
		c0.9-0.5,1.8-1.3,2.7-2.4V65.8z M255.4,52.9c0,0.7,0,1.3-0.1,1.8c0,0.4-0.1,0.8-0.2,1.1c-0.1,0.3-0.2,0.4-0.3,0.5
		c-0.1,0.1-0.3,0.1-0.5,0.1c-0.1,0-0.3,0-0.5-0.1c-0.2-0.1-0.4-0.1-0.7-0.2c-0.3-0.1-0.5-0.2-0.8-0.2c-0.3-0.1-0.6-0.1-1-0.1
		c-0.4,0-0.9,0.1-1.3,0.3c-0.4,0.2-0.9,0.4-1.3,0.8c-0.4,0.4-0.9,0.9-1.4,1.4c-0.5,0.6-1,1.3-1.6,2.2v16.7c0,0.2-0.1,0.4-0.2,0.5
		c-0.1,0.2-0.3,0.3-0.6,0.4c-0.3,0.1-0.7,0.2-1.1,0.2c-0.5,0-1.1,0.1-1.8,0.1c-0.7,0-1.3,0-1.8-0.1c-0.5,0-0.9-0.1-1.1-0.2
		c-0.3-0.1-0.5-0.2-0.6-0.4c-0.1-0.1-0.2-0.3-0.2-0.5V50.4c0-0.2,0-0.4,0.1-0.5c0.1-0.2,0.3-0.3,0.5-0.4c0.3-0.1,0.6-0.2,1-0.2
		c0.4,0,0.9-0.1,1.6-0.1c0.6,0,1.2,0,1.6,0.1c0.4,0,0.8,0.1,1,0.2c0.2,0.1,0.4,0.2,0.5,0.4c0.1,0.1,0.1,0.3,0.1,0.5v3.3
		c0.7-1,1.4-1.8,2-2.5c0.6-0.7,1.2-1.2,1.8-1.6c0.6-0.4,1.1-0.6,1.7-0.8c0.5-0.2,1.1-0.2,1.7-0.2c0.3,0,0.5,0,0.8,0
		c0.3,0,0.6,0.1,0.9,0.1c0.3,0.1,0.6,0.2,0.8,0.2c0.3,0.1,0.4,0.2,0.5,0.3c0.1,0.1,0.2,0.2,0.2,0.3c0,0.1,0.1,0.3,0.1,0.5
		c0,0.2,0.1,0.5,0.1,0.9C255.3,51.6,255.4,52.2,255.4,52.9L255.4,52.9z M267.6,77.2c0,0.2-0.1,0.4-0.2,0.5c-0.1,0.2-0.3,0.3-0.6,0.4
		c-0.3,0.1-0.7,0.2-1.2,0.2s-1.1,0.1-1.8,0.1c-0.8,0-1.4,0-1.8-0.1c-0.5,0-0.9-0.1-1.2-0.2s-0.5-0.2-0.6-0.4
		c-0.1-0.1-0.2-0.3-0.2-0.5V50.4c0-0.2,0.1-0.4,0.2-0.5c0.1-0.1,0.3-0.3,0.6-0.4c0.3-0.1,0.7-0.2,1.2-0.3c0.5-0.1,1.1-0.1,1.8-0.1
		c0.7,0,1.3,0,1.8,0.1c0.5,0.1,0.9,0.1,1.2,0.3c0.3,0.1,0.5,0.2,0.6,0.4c0.1,0.2,0.2,0.3,0.2,0.5C267.6,50.4,267.6,77.2,267.6,77.2z
		 M268.2,41.3c0,1.5-0.3,2.6-0.9,3.2c-0.6,0.6-1.8,0.9-3.4,0.9c-1.7,0-2.9-0.3-3.4-0.9c-0.6-0.5-0.9-1.6-0.9-3
		c0-1.5,0.3-2.6,0.9-3.2c0.6-0.6,1.8-0.9,3.5-0.9c1.7,0,2.8,0.3,3.4,0.9C267.9,38.8,268.2,39.8,268.2,41.3z M300.7,77.2
		c0,0.2,0,0.4-0.2,0.5c-0.1,0.2-0.3,0.3-0.6,0.4s-0.7,0.2-1.2,0.2s-1.1,0.1-1.8,0.1c-0.8,0-1.4,0-1.8-0.1c-0.5,0-0.9-0.1-1.2-0.2
		c-0.3-0.1-0.5-0.2-0.6-0.4c-0.1-0.1-0.2-0.3-0.2-0.5V61.9c0-1.3-0.1-2.3-0.3-3.1c-0.2-0.7-0.5-1.4-0.8-1.9
		c-0.4-0.5-0.8-0.9-1.4-1.3c-0.6-0.3-1.2-0.4-2-0.4c-1,0-1.9,0.4-2.9,1.1c-1,0.7-2,1.7-3.1,3v17.8c0,0.2,0,0.4-0.2,0.5
		c-0.1,0.2-0.3,0.3-0.6,0.4c-0.3,0.1-0.7,0.2-1.2,0.2s-1.1,0.1-1.8,0.1c-0.7,0-1.3,0-1.8-0.1c-0.5,0-0.9-0.1-1.2-0.2
		c-0.3-0.1-0.5-0.2-0.6-0.4c-0.1-0.1-0.2-0.3-0.2-0.5V50.4c0-0.2,0-0.4,0.2-0.5c0.1-0.2,0.3-0.3,0.5-0.4c0.3-0.1,0.6-0.2,1-0.2
		c0.4,0,0.9-0.1,1.5-0.1c0.7,0,1.2,0,1.6,0.1c0.4,0,0.7,0.1,1,0.2c0.2,0.1,0.4,0.2,0.5,0.4c0.1,0.1,0.2,0.3,0.2,0.5v3.1
		c1.5-1.6,3-2.8,4.5-3.6s3.1-1.2,4.8-1.2c1.8,0,3.4,0.3,4.6,0.9c1.3,0.6,2.2,1.4,3,2.5c0.8,1,1.3,2.2,1.7,3.6c0.3,1.4,0.5,3,0.5,5
		L300.7,77.2L300.7,77.2z"/>
</g>
</svg>
