<?xml version="1.0" encoding="UTF-8"?>
<!DOCTYPE svg PUBLIC "-//W3C//DTD SVG 1.1//EN" "http://www.w3.org/Graphics/SVG/1.1/DTD/svg11.dtd">
<!-- Creator: CorelDRAW Standard 2024 -->
<svg xmlns="http://www.w3.org/2000/svg" xml:space="preserve" width="16px" height="16px" version="1.1" style="shape-rendering:geometricPrecision; text-rendering:geometricPrecision; image-rendering:optimizeQuality; fill-rule:evenodd; clip-rule:evenodd" viewBox="0 0 16 16" xmlns:xlink="http://www.w3.org/1999/xlink" xmlns:xodm="http://www.corel.com/coreldraw/odm/2003">
 <g id="Layer_x0020_1">
  <metadata id="CorelCorpID_0Corel-Layer"/>
  <g id="_2318393878896">
   <g>
    <path fill="#000000" fill-opacity="0.14902" d="M7.476636 5.831776l-4.785047 0c-0.448598,0 -0.747664,0.299065 -0.747664,0.672897l0 3.663551 5.53271 0 0 -4.336449z"/>
    <path fill="#000000" fill-opacity="0.25098" d="M15.252336 10.616822l-14.504673 0c-0.299065,0 -0.448598,0.224299 -0.448598,0.523364l0 0.448598c0,0.299065 0.149533,0.523364 0.448598,0.523364l14.504673 0c0.224299,0 0.448598,-0.224299 0.448598,-0.523364l0 -0.448598c0,-0.299065 -0.224299,-0.523364 -0.448598,-0.523364z"/>
    <path fill="#999999" d="M14.728972 5.308411c0,-0.672897 -0.598131,-1.420561 -1.271028,-1.420561l-4.411215 0c-0.373832,0 -0.747664,0.224299 -0.971963,0.523364l-0.598131 0.897196 -5.757009 0c-0.448598,0 -0.747664,0.299065 -0.747664,0.747664l0 4.336449 13.757009 0 0 -5.084112z"/>
    <path fill="#FFFFFF" d="M8 9.64486l-7.028037 0 0 -3.588785c0,-0.448598 0.299065,-0.747664 0.747664,-0.747664l5.757009 0 0.523364 -0.747664 0 5.084112z"/>
    <path fill="#999999" d="M6.056075 7.252336c0.224299,0 0.373832,0.149533 0.373832,0.373832 0,0.224299 -0.149533,0.373832 -0.373832,0.373832l-2.018692 0 0.373832 0.299065c0.074766,0.149533 0.074766,0.373832 0,0.523364 -0.149533,0.149533 -0.373832,0.149533 -0.523364,0l-0.971963 -0.971963c0,0 -0.074766,-0.074766 -0.074766,-0.149533 0,-0.074766 0.074766,-0.149533 0.074766,-0.149533l0.971963 -0.897196c0.149533,-0.149533 0.373832,-0.149533 0.523364,0 0.074766,0.149533 0.074766,0.373832 0,0.448598l-0.373832 0.373832 2.018692 0z"/>
   </g>
  </g>
 </g>
</svg>
