<?xml version="1.0" encoding="UTF-8"?>
<!DOCTYPE svg PUBLIC "-//W3C//DTD SVG 1.1//EN" "http://www.w3.org/Graphics/SVG/1.1/DTD/svg11.dtd">
<!-- Creator: CorelDRAW Standard 2024 -->
<svg xmlns="http://www.w3.org/2000/svg" xml:space="preserve" width="22px" height="22px" version="1.1" style="shape-rendering:geometricPrecision; text-rendering:geometricPrecision; image-rendering:optimizeQuality; fill-rule:evenodd; clip-rule:evenodd" viewBox="0 0 0.214 0.214" xmlns:xlink="http://www.w3.org/1999/xlink" xmlns:xodm="http://www.corel.com/coreldraw/odm/2003">
 <g id="Layer_x0020_1">
  <metadata id="CorelCorpID_0Corel-Layer"/>
  <g id="_2318393878896">
   <g>
    <path fill="#000000" fill-opacity="0.14902" d="M0.1 0.078l-0.064 0c-0.006,0 -0.01,0.004 -0.01,0.009l0 0.049 0.074 0 0 -0.058z"/>
    <path fill="#000000" fill-opacity="0.25098" d="M0.204 0.142l-0.194 0c-0.004,0 -0.006,0.003 -0.006,0.007l0 0.006c0,0.004 0.002,0.007 0.006,0.007l0.194 0c0.003,0 0.006,-0.003 0.006,-0.007l0 -0.006c0,-0.004 -0.003,-0.007 -0.006,-0.007z"/>
    <path fill="#999999" d="M0.197 0.071c0,-0.009 -0.008,-0.019 -0.017,-0.019l-0.059 0c-0.005,0 -0.01,0.003 -0.013,0.007l-0.008 0.012 -0.077 0c-0.006,0 -0.01,0.004 -0.01,0.01l0 0.058 0.184 0 0 -0.068z"/>
    <path fill="#FFFFFF" d="M0.107 0.129l-0.094 0 0 -0.048c0,-0.006 0.004,-0.01 0.01,-0.01l0.077 0 0.007 -0.01 0 0.068z"/>
    <path fill="#999999" d="M0.081 0.097c0.003,0 0.005,0.002 0.005,0.005 0,0.003 -0.002,0.005 -0.005,0.005l-0.027 0 0.005 0.004c0.001,0.002 0.001,0.005 0,0.007 -0.002,0.002 -0.005,0.002 -0.007,0l-0.013 -0.013c0,0 -0.001,-0.001 -0.001,-0.002 0,-0.001 0.001,-0.002 0.001,-0.002l0.013 -0.012c0.002,-0.002 0.005,-0.002 0.007,0 0.001,0.002 0.001,0.005 0,0.006l-0.005 0.005 0.027 0z"/>
   </g>
  </g>
 </g>
</svg>
