<?xml version="1.0" encoding="utf-8"?>
<!DOCTYPE svg PUBLIC "-//W3C//DTD SVG 1.1//EN" "http://www.w3.org/Graphics/SVG/1.1/DTD/svg11.dtd">
<svg version="1.1" id="TabDuplicate" xmlns="http://www.w3.org/2000/svg" xmlns:xlink="http://www.w3.org/1999/xlink" x="0px" y="0px"
     width="16px" height="16px" viewBox="0 0 16 16" enable-background="new 0 0 16 16" xml:space="preserve">
  <path fill="#999999" d="M3,7V6c0-0.55,0.45-1,1-1h4l1,1h3c0.55,0,1,0.45,1,1v5H3V7z"/>
  <rect x="3" y="11" fill="#999999" width="10" height="1"/>
  <rect x="4" y="7" fill="#FFFFFF" width="8" height="4"/>
  <path fill="#B7B7B7" d="M5,5V4c0-0.55,0.45-1,1-1h3.5L10.5,4H13c0.55,0,1,0.45,1,1v5h-1V6c0-0.55-0.45-1-1-1h-3l-1-1H6
    C5.45,4,5,4.45,5,5v1H4V5z"/>
  <path fill="#2A5496" d="M7,8h2v1h2v1H9v1H8v-1H6V9h1V8z"/>
</svg>
