<?xml version="1.0" encoding="utf-8"?>
<!DOCTYPE svg PUBLIC "-//W3C//DTD SVG 1.1//EN" "http://www.w3.org/Graphics/SVG/1.1/DTD/svg11.dtd">
<svg version="1.1" id="Icon" xmlns="http://www.w3.org/2000/svg" xmlns:xlink="http://www.w3.org/1999/xlink" x="0px" y="0px"
     width="16px" height="16px" viewBox="0 0 16 16" enable-background="new 0 0 16 16" xml:space="preserve">
  <g>
    <polygon fill="#B5B5B5" points="3,5 7,3 13,3 15,5 15,11 5,11"/>
    <polygon fill="#E5E5E5" points="4,6 8,4 12,4 14,6 14,7 4,7"/>
    <polygon fill="#999999" points="2,7 6,5 12,5 14,7 14,13 2,13"/>
    <polygon fill="#CFCFCF" points="3,8 7,6 11,6 13,8 13,9 3,9"/>
    <polygon fill="#FFFFFF" points="3,9 13,9 13,12 3,12"/>
    <polygon fill="#4F4F4F" points="5,10 9,10 9,9 11,11 9,13 9,12 5,12"/>
  </g>
</svg>
