<?xml version="1.0" encoding="utf-8"?>
<!DOCTYPE svg PUBLIC "-//W3C//DTD SVG 1.1//EN" "http://www.w3.org/Graphics/SVG/1.1/DTD/svg11.dtd">
<svg version="1.1" id="TabsPrevious" xmlns="http://www.w3.org/2000/svg" xmlns:xlink="http://www.w3.org/1999/xlink" x="0px" y="0px"
     width="16px" height="16px" viewBox="0 0 16 16" xml:space="preserve">
  <path fill="#999999" d="M7.477 5.832l-4.785 0c-0.449,0 -0.748,0.299 -0.748,0.673l0 3.664 5.533 0 0 -4.336z"/>
  <path fill="#999999" d="M15.252 10.617l-14.505 0c-0.299,0 -0.449,0.224 -0.449,0.523l0 0.449c0,0.299 0.15,0.523 0.449,0.523l14.505 0c0.224,0 0.449,-0.224 0.449,-0.523l0 -0.449c0,-0.299 -0.224,-0.523 -0.449,-0.523z"/>
  <path fill="#999999" d="M14.729 5.308c0,-0.673 -0.598,-1.421 -1.271,-1.421l-4.411 0c-0.374,0 -0.748,0.224 -0.972,0.523l-0.598 0.897 -5.757 0c-0.449,0 -0.748,0.299 -0.748,0.748l0 4.336 13.757 0 0 -5.084z"/>
  <path fill="#FFFFFF" d="M8 9.645l-7.028 0 0 -3.589c0,-0.449 0.299,-0.748 0.748,-0.748l5.757 0 0.523 -0.748 0 5.084z"/>
  <path fill="#999999" d="M6.056 7.252c0.224,0 0.374,0.15 0.374,0.374 0,0.224 -0.15,0.374 -0.374,0.374l-2.019 0 0.374 0.299c0.075,0.15 0.075,0.374 0,0.523 -0.15,0.15 -0.374,0.15 -0.523,0l-0.972 -0.972 0 0 0 0 0 0 0 0 0 0 0 0 0 0 0 0 0 0 -0.075 0 0 0 0 0 0 0 0 0 0 0 0 0 0 0 0 0 0 0 0 -0.075 0 0 0 0 0 0 0 0 0 0 0 0 0 0 0 0c0,-0.075 -0.075,-0.075 -0.075,-0.15l0 0c0,0 0,0 0,0 0,0 0,0 0,0l0 0c0,-0.075 0.075,-0.075 0.075,-0.15l0 0 0 0 0 0 0 0 0 0 0 0 0 0 0 -0.075 0 0 0 0 0 0 0 0 0 0 0 0 0 0 0 0 0 0 0 0 0.075 0 0 0 0 0 0 0 0 0 0 0 0 0 0 0 0 0 0 0 0 -0.075 0.972 -0.897c0.15,-0.15 0.374,-0.15 0.523,0 0.075,0.15 0.075,0.374 0,0.449l-0.374 0.374 2.019 0z"/>
</svg>
