<?xml version="1.0" encoding="utf-8"?>
<!DOCTYPE svg PUBLIC "-//W3C//DTD SVG 1.1//EN" "http://www.w3.org/Graphics/SVG/1.1/DTD/svg11.dtd">
<svg version="1.1" id="TabsNew" xmlns="http://www.w3.org/2000/svg" xmlns:xlink="http://www.w3.org/1999/xlink" x="0px" y="0px"
     width="16px" height="16px" viewBox="0 0 16 16" xml:space="preserve">
  <path fill="#999999" d="M0.774 10.667l14.452 0c0.258,0 0.516,0.172 0.516,0.43l0 0.516c0,0.258 -0.258,0.516 -0.516,0.516l-14.452 0c-0.258,0 -0.516,-0.258 -0.516,-0.516l0 -0.516c0,-0.258 0.258,-0.43 0.516,-0.43z"/>
  <path fill="#999999" d="M1.204 5.333c0,-0.688 0.602,-1.462 1.29,-1.462l4.473 0c0.344,0 0.688,0.172 0.946,0.516l0.602 0.946 5.763 0c0.43,0 0.688,0.344 0.688,0.688l0 4.387 -13.763 0 0 -5.075z"/>
  <path fill="#FFFFFF" d="M8 9.72l6.968 0 0 -3.699c0,-0.344 -0.258,-0.688 -0.688,-0.688l-5.763 0 -0.516 -0.774 0 5.161z"/>
  <path fill="#999999" d="M11.097 6.538c0,-0.172 0.172,-0.344 0.43,-0.344 0.172,0 0.344,0.172 0.344,0.344l0 0.602 0.688 0c0.258,0 0.344,0.172 0.344,0.344 0,0.258 -0.086,0.344 -0.344,0.344l-0.688 0 0 0.602c0,0.258 -0.172,0.43 -0.344,0.43 -0.258,0 -0.43,-0.172 -0.43,-0.43l0 -0.602 -0.688 0c-0.172,0 -0.344,-0.086 -0.344,-0.344 0,-0.172 0.172,-0.344 0.344,-0.344l0.688 0 0 -0.602z"/>
</svg>
