<?xml version="1.0" encoding="UTF-8"?>
<!DOCTYPE svg PUBLIC "-//W3C//DTD SVG 1.1//EN" "http://www.w3.org/Graphics/SVG/1.1/DTD/svg11.dtd">
<!-- Creator: CorelDRAW Standard 2024 -->
<svg xmlns="http://www.w3.org/2000/svg" xml:space="preserve" width="16px" height="16px" version="1.1" style="shape-rendering:geometricPrecision; text-rendering:geometricPrecision; image-rendering:optimizeQuality; fill-rule:evenodd; clip-rule:evenodd" viewBox="0 0 16 16" xmlns:xlink="http://www.w3.org/1999/xlink" xmlns:xodm="http://www.corel.com/coreldraw/odm/2003">
 <g id="Layer_x0020_1">
  <metadata id="CorelCorpID_0Corel-Layer"/>
  <g id="_2318285554704">
   <g>
    <path fill="#999999" d="M0.739496 10.689076l14.521008 0c0.268908,0 0.470588,0.201681 0.470588,0.470588l0 0.470588c0,0.268908 -0.201681,0.470588 -0.470588,0.470588l-14.521008 0c-0.268908,0 -0.470588,-0.201681 -0.470588,-0.470588l0 -0.470588c0,-0.268908 0.201681,-0.470588 0.470588,-0.470588z"/>
    <path fill="#999999" d="M1.210084 5.310924c0,-0.672269 0.605042,-1.411765 1.344538,-1.411765l4.369748 0c0.403361,0 0.739496,0.201681 1.008403,0.470588l0.605042 0.941176 5.714286 0c0.470588,0 0.739496,0.336134 0.739496,0.739496l0 4.369748 -13.781513 0 0 -5.109244z"/>
    <path fill="#FFFFFF" d="M8 9.680672l6.991597 0 0 -3.630252c0,-0.403361 -0.268908,-0.739496 -0.739496,-0.739496l-5.714286 0 -0.537815 -0.739496 0 5.109244z"/>
    <path fill="#999999" d="M10.151261 5.647059l1.94958 0c0.134454,0 0.268908,0.067227 0.336134,0.134454 0.134454,0.067227 0.134454,0.201681 0.134454,0.336134l0 0.739496 0.268908 0c0.134454,0 0.268908,0.067227 0.336134,0.134454 0.067227,0.067227 0.134454,0.201681 0.134454,0.336134l0 1.478992c0,0.134454 -0.067227,0.268908 -0.134454,0.336134 -0.067227,0.067227 -0.201681,0.134454 -0.336134,0.134454l-1.94958 0c-0.134454,0 -0.268908,-0.067227 -0.336134,-0.134454 -0.067227,-0.067227 -0.134454,-0.201681 -0.134454,-0.336134l0 -0.739496 -0.268908 0c-0.134454,0 -0.201681,-0.067227 -0.336134,-0.134454 -0.067227,-0.067227 -0.134454,-0.201681 -0.134454,-0.336134l0 -1.478992c0,-0.134454 0.067227,-0.268908 0.134454,-0.336134 0.134454,-0.067227 0.201681,-0.134454 0.336134,-0.134454l0 0.470588 0 -0.470588 0 0zm2.420168 1.680672l0 0.268908c0,0.134454 0,0.268908 -0.134454,0.336134 -0.067227,0.067227 -0.201681,0.134454 -0.336134,0.134454l-1.210084 0 0 0.739496 0 0 1.94958 0 0 -1.478992 -0.268908 0zm-1.680672 -0.470588l1.210084 0 0 -0.739496 -1.94958 0 0 1.478992 0.268908 0 0 -0.268908c0,-0.134454 0.067227,-0.268908 0.134454,-0.336134 0.067227,-0.067227 0.201681,-0.134454 0.336134,-0.134454l0 0.470588 0 -0.470588zm1.210084 0.470588l-1.210084 0 0 0.268908 1.210084 0 0 -0.268908z"/>
   </g>
  </g>
 </g>
</svg>
