<?xml version="1.0" encoding="utf-8"?>
<!DOCTYPE svg PUBLIC "-//W3C//DTD SVG 1.1//EN" "http://www.w3.org/Graphics/SVG/1.1/DTD/svg11.dtd">
<svg version="1.1" id="TabsClose" xmlns="http://www.w3.org/2000/svg" xmlns:xlink="http://www.w3.org/1999/xlink" x="0px" y="0px"
     width="16px" height="16px" viewBox="0 0 16 16" xml:space="preserve">
  <path fill="#999999" d="M0.773 10.667l14.454 0c0.309,0 0.541,0.232 0.541,0.464l0 0.464c0,0.309 -0.232,0.541 -0.541,0.541l-14.454 0c-0.309,0 -0.541,-0.232 -0.541,-0.541l0 -0.464c0,-0.232 0.232,-0.464 0.541,-0.464z"/>
  <path fill="#FFFFFF" d="M1.237 5.333c0,-0.696 0.541,-1.469 1.314,-1.469l4.406 0c0.386,0 0.773,0.232 0.928,0.541l0.618 0.928 5.797 0c0.386,0 0.696,0.309 0.696,0.773l0 4.329 -13.758 0 0 -5.101z"/>
  <path fill="#999999" d="M8.039 9.662l6.957 0 0 -3.633c0,-0.386 -0.309,-0.696 -0.696,-0.696l-5.797 0 -0.464 -0.773 0 5.101z"/>
  <path fill="#999999" d="M3.556 6.57c-0.155,-0.155 -0.155,-0.386 0,-0.541 0.077,-0.077 0.309,-0.077 0.464,0l0.696 0.773 0.773 -0.773c0.077,-0.077 0.309,-0.077 0.464,0 0.155,0.155 0.155,0.386 0,0.541l-0.696 0.696 0.696 0.696c0.155,0.155 0.155,0.386 0,0.541 -0.155,0.155 -0.386,0.155 -0.464,0l-0.773 -0.696 -0.696 0.696c-0.155,0.155 -0.386,0.155 -0.464,0 -0.155,-0.155 -0.155,-0.386 0,-0.541l0.696 -0.696 -0.696 -0.696z"/>
</svg>
