<?xml version="1.0" encoding="utf-8"?>
<!DOCTYPE svg PUBLIC "-//W3C//DTD SVG 1.1//EN" "http://www.w3.org/Graphics/SVG/1.1/DTD/svg11.dtd">
<svg version="1.1" id="TabsDuplicate" xmlns="http://www.w3.org/2000/svg" xmlns:xlink="http://www.w3.org/1999/xlink" x="0px" y="0px"
     width="16px" height="16px" viewBox="0 0 16 16" xml:space="preserve">
  <path fill="#999999" d="M0.739 10.689l14.521 0c0.269,0 0.471,0.202 0.471,0.471l0 0.471c0,0.269 -0.202,0.471 -0.471,0.471l-14.521 0c-0.269,0 -0.471,-0.202 -0.471,-0.471l0 -0.471c0,-0.269 0.202,-0.471 0.471,-0.471z"/>
  <path fill="#999999" d="M1.21 5.311c0,-0.672 0.605,-1.412 1.345,-1.412l4.37 0c0.403,0 0.739,0.202 1.008,0.471l0.605 0.941 5.714 0c0.471,0 0.739,0.336 0.739,0.739l0 4.37 -13.782 0 0 -5.109z"/>
  <path fill="#FFFFFF" d="M8 9.681l6.992 0 0 -3.63c0,-0.403 -0.269,-0.739 -0.739,-0.739l-5.714 0 -0.538 -0.739 0 5.109z"/>
  <path fill="#999999" d="M10.151 5.647l1.95 0c0.134,0 0.269,0.067 0.336,0.134 0.134,0.067 0.134,0.202 0.134,0.336l0 0.739 0.269 0c0.134,0 0.269,0.067 0.336,0.134 0.067,0.067 0.134,0.202 0.134,0.336l0 1.479c0,0.134 -0.067,0.269 -0.134,0.336 -0.067,0.067 -0.202,0.134 -0.336,0.134l-1.95 0c-0.134,0 -0.269,-0.067 -0.336,-0.134 -0.067,-0.067 -0.134,-0.202 -0.134,-0.336l0 -0.739 -0.269 0c-0.134,0 -0.202,-0.067 -0.336,-0.134 -0.067,-0.067 -0.134,-0.202 -0.134,-0.336l0 -1.479 0 0c0,-0.134 0.067,-0.269 0.134,-0.336l0 0c0.134,-0.067 0.202,-0.134 0.336,-0.134l0 0.471 0 -0.471zm2.42 1.681l0 0.269c0,0.134 0,0.269 -0.134,0.336 -0.067,0.067 -0.202,0.134 -0.336,0.134l-1.21 0 0 0.739 0 0 1.95 0 0 -1.479 -0.269 0zm-1.681 -0.471l1.21 0 0 -0.739 -1.95 0 0 1.479 0.269 0 0 -0.269 0 0c0,-0.134 0.067,-0.269 0.134,-0.336l0 0c0.067,-0.067 0.202,-0.134 0.336,-0.134l0 0.471 0 -0.471zm1.21 0.471l-1.21 0 0 0.269 1.21 0 0 -0.269z"/>
</svg>
