<?xml version="1.0" encoding="utf-8"?>
<!DOCTYPE svg PUBLIC "-//W3C//DTD SVG 1.1//EN" "http://www.w3.org/Graphics/SVG/1.1/DTD/svg11.dtd">
<svg version="1.1" id="Icon" xmlns="http://www.w3.org/2000/svg" xmlns:xlink="http://www.w3.org/1999/xlink" x="0px" y="0px"
     width="16px" height="16px" viewBox="0 0 16 16" enable-background="new 0 0 16 16" xml:space="preserve">
  <g>
    <polygon fill="#999999" points="2,6 6,4 12,4 14,6 14,12 2,12"/>
    <polygon fill="#CFCFCF" points="3,7 7,5 11,5 13,7 13,8 3,8"/>
    <polygon fill="#FFFFFF" points="3,8 13,8 13,11 3,11"/>
    <polygon fill="#4F4F4F" points="7,9 8,9 9,10 10,9 11,9 10,10 11,11 11,12 10,12 9,11 8,12 7,12 7,11 8,10"/>
  </g>
</svg>
