<?xml version="1.0" encoding="UTF-8"?>
<!DOCTYPE svg PUBLIC "-//W3C//DTD SVG 1.1//EN" "http://www.w3.org/Graphics/SVG/1.1/DTD/svg11.dtd">
<!-- Creator: CorelDRAW Standard 2024 -->
<svg xmlns="http://www.w3.org/2000/svg" xml:space="preserve" width="16px" height="16px" version="1.1" style="shape-rendering:geometricPrecision; text-rendering:geometricPrecision; image-rendering:optimizeQuality; fill-rule:evenodd; clip-rule:evenodd" viewBox="0 0 16 16" xmlns:xlink="http://www.w3.org/1999/xlink" xmlns:xodm="http://www.corel.com/coreldraw/odm/2003">
 <g id="Layer_x0020_1">
  <metadata id="CorelCorpID_0Corel-Layer"/>
  <g id="_2318295430624">
   <g>
    <path fill="#000000" fill-opacity="0.25098" d="M0.772947 10.666667l14.454106 0c0.309179,0 0.541063,0.231884 0.541063,0.463768l0 0.463768c0,0.309179 -0.231884,0.541063 -0.541063,0.541063l-14.454106 0c-0.309179,0 -0.541063,-0.231884 -0.541063,-0.541063l0 -0.463768c0,-0.231884 0.231884,-0.463768 0.541063,-0.463768z"/>
    <path fill="#FFFFFF" d="M1.236715 5.333333c0,-0.695652 0.541063,-1.468599 1.31401,-1.468599l4.405797 0c0.386473,0 0.772947,0.231884 0.927536,0.541063l0.618357 0.927536 5.797101 0c0.386473,0 0.695652,0.309179 0.695652,0.772947l0 4.328502 -13.758454 0 0 -5.101449z"/>
    <path fill="#999999" d="M8.038647 9.661836l6.956522 0 0 -3.63285c0,-0.386473 -0.309179,-0.695652 -0.695652,-0.695652l-5.797101 0 -0.463768 -0.772947 0 5.101449z"/>
    <path fill="#999999" d="M3.555556 6.570048c-0.154589,-0.154589 -0.154589,-0.386473 0,-0.541063 0.077295,-0.077295 0.309179,-0.077295 0.463768,0l0.695652 0.772947 0.772947 -0.772947c0.077295,-0.077295 0.309179,-0.077295 0.463768,0 0.154589,0.154589 0.154589,0.386473 0,0.541063l-0.695652 0.695652 0.695652 0.695652c0.154589,0.154589 0.154589,0.386473 0,0.541063 -0.154589,0.154589 -0.386473,0.154589 -0.463768,0l-0.772947 -0.695652 -0.695652 0.695652c-0.154589,0.154589 -0.386473,0.154589 -0.463768,0 -0.154589,-0.154589 -0.154589,-0.386473 0,-0.541063l0.695652 -0.695652 -0.695652 -0.695652z"/>
   </g>
  </g>
 </g>
</svg>
