<?xml version="1.0" encoding="utf-8"?>
<!DOCTYPE svg PUBLIC "-//W3C//DTD SVG 1.1//EN" "http://www.w3.org/Graphics/SVG/1.1/DTD/svg11.dtd">
<svg version="1.1" id="TabsNext" xmlns="http://www.w3.org/2000/svg" xmlns:xlink="http://www.w3.org/1999/xlink" x="0px" y="0px"
     width="16px" height="16px" viewBox="0 0 16 16" xml:space="preserve">
  <path fill="#999999" d="M8.466 5.841l4.825 0c0.423,0 0.762,0.254 0.762,0.677l0 3.64 -5.587 0 0 -4.317z"/>
  <path fill="#999999" d="M0.762 10.667l14.476 0c0.254,0 0.508,0.169 0.508,0.423l0 0.508c0,0.254 -0.254,0.508 -0.508,0.508l-14.476 0c-0.254,0 -0.508,-0.254 -0.508,-0.508l0 -0.508c0,-0.254 0.254,-0.423 0.508,-0.423z"/>
  <path fill="#999999" d="M1.27 5.333c0,-0.762 0.508,-1.439 1.27,-1.439l4.402 0c0.339,0 0.762,0.169 0.931,0.508l0.677 0.931 5.757 0c0.339,0 0.677,0.339 0.677,0.762l0 4.317 -13.714 0 0 -5.079z"/>
  <path fill="#FFFFFF" d="M7.958 9.651l7.026 0 0 -3.556c0,-0.423 -0.339,-0.762 -0.677,-0.762l-5.757 0 -0.593 -0.762 0 5.079z"/>
  <path fill="#999999" d="M9.905 7.958c-0.169,0 -0.339,-0.085 -0.339,-0.339 0,-0.169 0.169,-0.339 0.339,-0.339l2.032 0 -0.339 -0.339c-0.169,-0.169 -0.169,-0.423 0,-0.508 0.169,-0.169 0.339,-0.169 0.508,0l0.931 0.931 0 0 0.085 0 0 0 0 0 0 0 0 0 0 0 0 0 0 0 0 0.085 0 0 0 0 0 0 0 0 0 0 0 0 0 0 0 0 0 0 0 0 0 0 0 0 0 0 0 0 0 0 0 0 0 0 0 0c0.085,0.085 0.085,0.085 0.085,0.169l0 0c0,0 0,0 0,0 0,0 0,0 0,0l0 0c0,0.085 0,0.085 -0.085,0.169l0 0 0 0 0 0 0 0 0 0 0 0 0 0 0 0 0 0 0 0 0 0.085 0 0 0 0 0 0 0 0 0 0 0 0 0 0 0 0 0 0 0 0 0 0 0 0 0 0 0 0 0 0 -0.085 0 0 0 0 0 -0.931 1.016c-0.169,0.085 -0.339,0.085 -0.508,0 -0.169,-0.169 -0.169,-0.423 0,-0.508l0.339 -0.423 -2.032 0z"/>
</svg>
