<?xml version="1.0" encoding="UTF-8"?>
<!DOCTYPE svg PUBLIC "-//W3C//DTD SVG 1.1//EN" "http://www.w3.org/Graphics/SVG/1.1/DTD/svg11.dtd">
<!-- Creator: CorelDRAW Standard 2024 -->
<svg xmlns="http://www.w3.org/2000/svg" xml:space="preserve" width="22px" height="22px" version="1.1" style="shape-rendering:geometricPrecision; text-rendering:geometricPrecision; image-rendering:optimizeQuality; fill-rule:evenodd; clip-rule:evenodd"
viewBox="0 0 0.186 0.186"
 xmlns:xlink="http://www.w3.org/1999/xlink"
 xmlns:xodm="http://www.corel.com/coreldraw/odm/2003">
 <defs>
  <style type="text/css">
   <![CDATA[
    .fil0 {fill:none}
    .fil2 {fill:#999999;fill-rule:nonzero}
    .fil3 {fill:white;fill-rule:nonzero}
    .fil1 {fill:black;fill-rule:nonzero;fill-opacity:0.250980}
   ]]>
  </style>
 </defs>
 <g id="Layer_x0020_1">
  <metadata id="CorelCorpID_0Corel-Layer"/>
  <g id="_2318294827232">
   <rect class="fil0" width="0.186" height="0.186"/>
   <g>
    <path class="fil1" d="M0.009 0.124l0.168 0c0.003,0 0.006,0.002 0.006,0.005l0 0.006c0,0.003 -0.003,0.006 -0.006,0.006l-0.168 0c-0.003,0 -0.006,-0.003 -0.006,-0.006l0 -0.006c0,-0.003 0.003,-0.005 0.006,-0.005z"/>
    <path class="fil2" d="M0.014 0.062c0,-0.008 0.007,-0.017 0.015,-0.017l0.052 0c0.004,0 0.008,0.002 0.011,0.006l0.007 0.011 0.067 0c0.005,0 0.008,0.004 0.008,0.008l0 0.051 -0.16 0 0 -0.059z"/>
    <path class="fil3" d="M0.093 0.113l0.081 0 0 -0.043c0,-0.004 -0.003,-0.008 -0.008,-0.008l-0.067 0 -0.006 -0.009 0 0.06z"/>
    <path class="fil2" d="M0.129 0.076c0,-0.002 0.002,-0.004 0.005,-0.004 0.002,0 0.004,0.002 0.004,0.004l0 0.007 0.008 0c0.003,0 0.004,0.002 0.004,0.004 0,0.003 -0.001,0.004 -0.004,0.004l-0.008 0 0 0.007c0,0.003 -0.002,0.005 -0.004,0.005 -0.003,0 -0.005,-0.002 -0.005,-0.005l0 -0.007 -0.008 0c-0.002,0 -0.004,-0.001 -0.004,-0.004 0,-0.002 0.002,-0.004 0.004,-0.004l0.008 0 0 -0.007z"/>
   </g>
  </g>
 </g>
</svg>
