<?xml version="1.0" encoding="UTF-8"?>
<!DOCTYPE svg PUBLIC "-//W3C//DTD SVG 1.1//EN" "http://www.w3.org/Graphics/SVG/1.1/DTD/svg11.dtd">
<!-- Creator: CorelDRAW Standard 2024 -->
<svg xmlns="http://www.w3.org/2000/svg" xml:space="preserve" width="16px" height="16px" version="1.1" style="shape-rendering:geometricPrecision; text-rendering:geometricPrecision; image-rendering:optimizeQuality; fill-rule:evenodd; clip-rule:evenodd" viewBox="0 0 16 16" xmlns:xlink="http://www.w3.org/1999/xlink" xmlns:xodm="http://www.corel.com/coreldraw/odm/2003">
 <g id="Layer_x0020_1">
  <metadata id="CorelCorpID_0Corel-Layer"/>
  <g id="_2318276997424">
   <g>
    <path fill="#000000" fill-opacity="0.14902" d="M8.465608 5.84127l4.825397 0c0.42328,0 0.761905,0.253968 0.761905,0.677249l0 3.640212 -5.587302 0 0 -4.31746z"/>
    <path fill="#000000" fill-opacity="0.25098" d="M0.761905 10.666667l14.47619 0c0.253968,0 0.507937,0.169312 0.507937,0.42328l0 0.507937c0,0.253968 -0.253968,0.507937 -0.507937,0.507937l-14.47619 0c-0.253968,0 -0.507937,-0.253968 -0.507937,-0.507937l0 -0.507937c0,-0.253968 0.253968,-0.42328 0.507937,-0.42328z"/>
    <path fill="#999999" d="M1.269841 5.333333c0,-0.761905 0.507937,-1.439153 1.269841,-1.439153l4.402116 0c0.338624,0 0.761905,0.169312 0.931217,0.507937l0.677249 0.931217 5.756614 0c0.338624,0 0.677249,0.338624 0.677249,0.761905l0 4.31746 -13.714286 0 0 -5.079365z"/>
    <path fill="#FFFFFF" d="M7.957672 9.650794l7.026455 0 0 -3.555556c0,-0.42328 -0.338624,-0.761905 -0.677249,-0.761905l-5.756614 0 -0.592593 -0.761905 0 5.079365z"/>
    <path fill="#999999" d="M9.904762 7.957672c-0.169312,0 -0.338624,-0.084656 -0.338624,-0.338624 0,-0.169312 0.169312,-0.338624 0.338624,-0.338624l2.031746 0 -0.338624 -0.338624c-0.169312,-0.169312 -0.169312,-0.42328 0,-0.507937 0.169312,-0.169312 0.338624,-0.169312 0.507937,0l0.931217 0.931217c0,0 0.084656,0.084656 0.084656,0.169312 0,0 -0.084656,0.084656 -0.084656,0.169312l-0.931217 1.015873c-0.169312,0.084656 -0.338624,0.084656 -0.507937,0 -0.169312,-0.169312 -0.169312,-0.42328 0,-0.507937l0.338624 -0.42328 -2.031746 0z"/>
   </g>
  </g>
 </g>
</svg>
