<?xml version="1.0" encoding="utf-8"?>
<!DOCTYPE svg PUBLIC "-//W3C//DTD SVG 1.1//EN" "http://www.w3.org/Graphics/SVG/1.1/DTD/svg11.dtd">
<svg version="1.1" id="TabsPrevious" xmlns="http://www.w3.org/2000/svg" xmlns:xlink="http://www.w3.org/1999/xlink" x="0px" y="0px"
     width="16px" height="16px" viewBox="0 0 16 16" xml:space="preserve">
  <path fill="#999999" d="M2 4h4.4c0.4 0 0.8 0.2 1 0.6l0.6 1H14c0.6 0 1 0.4 1 1V12H1V5c0-0.6 0.4-1 1-1z"/>
  <rect x="1" y="11" width="14" height="1" fill="#999999"/>
  <path fill="#FFFFFF" d="M8 10h7V7.5c0-0.3-0.2-0.5-0.5-0.5H9l-0.6-1H8V10z"/>
  <path fill="#2A5496" d="M13 7c0-0.3-0.2-0.5-0.5-0.5h-2.3l0.7-0.7c0.2-0.2 0.2-0.5 0-0.7s-0.5-0.2-0.7 0l-1.7 1.7c-0.2 0.2-0.2 0.5 0 0.7l1.7 1.7c0.2 0.2 0.5 0.2 0.7 0s0.2-0.5 0-0.7l-0.7-0.7h2.3c0.3 0 0.5-0.2 0.5-0.5V7z"/>
</svg>
