<?xml version="1.0" encoding="utf-8"?>
<!DOCTYPE svg PUBLIC "-//W3C//DTD SVG 1.1//EN" "http://www.w3.org/Graphics/SVG/1.1/DTD/svg11.dtd">
<svg version="1.1" id="TabsNext" xmlns="http://www.w3.org/2000/svg" xmlns:xlink="http://www.w3.org/1999/xlink" x="0px" y="0px"
     width="16px" height="16px" viewBox="0 0 0.189 0.189" xml:space="preserve">
  <path fill="#999999" d="M0.1 0.069l0.057 0c0.005,0 0.009,0.003 0.009,0.008l0 0.043 -0.066 0 0 -0.051z"/>
  <path fill="#999999" d="M0.009 0.126l0.171 0c0.003,0 0.006,0.002 0.006,0.005l0 0.006c0,0.003 -0.003,0.006 -0.006,0.006l-0.171 0c-0.003,0 -0.006,-0.003 -0.006,-0.006l0 -0.006c0,-0.003 0.003,-0.005 0.006,-0.005z"/>
  <path fill="#999999" d="M0.015 0.063c0,-0.009 0.006,-0.017 0.015,-0.017l0.052 0c0.004,0 0.009,0.002 0.011,0.006l0.008 0.011 0.068 0c0.004,0 0.008,0.004 0.008,0.009l0 0.051 -0.162 0 0 -0.06z"/>
  <path fill="#FFFFFF" d="M0.094 0.114l0.083 0 0 -0.042c0,-0.005 -0.004,-0.009 -0.008,-0.009l-0.068 0 -0.007 -0.009 0 0.06z"/>
  <path fill="#2A5496" d="M0.117 0.094c-0.002,0 -0.004,-0.001 -0.004,-0.004 0,-0.002 0.002,-0.004 0.004,-0.004l0.024 0 -0.004 -0.004c-0.002,-0.002 -0.002,-0.005 0,-0.006 0.002,-0.002 0.004,-0.002 0.006,0l0.011 0.011 0 0 0.001 0 0 0 0 0 0 0 0 0 0 0 0 0 0 0 0 0.001 0 0 0 0 0 0 0 0 0 0 0 0 0 0 0 0 0 0 0 0 0 0 0 0 0 0 0 0 0 0 0 0 0 0 0 0 0c0.001,0.001 0.001,0.001 0.001,0.002 0,0.001 0,0.001 -0.001,0.002l0 0 0 0 0 0 0 0 0 0 0 0 0 0 0 0 0 0 0 0 0 0 0 0.001 0 0 0 0 0 0 0 0 0 0 0 0 0 0 0 0 0 0 0 0 0 0 0 0 0 0 0 0 0 0 -0.001 0 0 0 0 0 -0.011 0.012c-0.002,0.001 -0.004,0.001 -0.006,0 -0.002,-0.002 -0.002,-0.005 0,-0.006l0.004 -0.005 -0.024 0z"/>
</svg>
