<?xml version="1.0" encoding="utf-8"?>
<!DOCTYPE svg PUBLIC "-//W3C//DTD SVG 1.1//EN" "http://www.w3.org/Graphics/SVG/1.1/DTD/svg11.dtd">
<svg version="1.1" id="TabsDuplicate" xmlns="http://www.w3.org/2000/svg" xmlns:xlink="http://www.w3.org/1999/xlink" x="0px" y="0px"
     width="16px" height="16px" viewBox="0 0 0.238 0.238" xml:space="preserve">
  <path fill="#999999" d="M0.018 0.079c0,-0.01 0.009,-0.021 0.02,-0.021l0.065 0c0.006,0 0.011,0.003 0.015,0.007l0.009 0.014 0.085 0c0.007,0 0.011,0.005 0.011,0.011l0 0.065 -0.205 0 0 -0.076z"/>
  <path fill="#999999" d="M0.011 0.159l0.216 0c0.004,0 0.007,0.003 0.007,0.007l0 0.007c0,0.004 -0.003,0.007 -0.007,0.007l-0.216 0c-0.004,0 -0.007,-0.003 -0.007,-0.007l0 -0.007c0,-0.004 0.003,-0.007 0.007,-0.007z"/>
  <path fill="#FFFFFF" d="M0.119 0.144l0.104 0 0 -0.054c0,-0.006 -0.004,-0.011 -0.011,-0.011l-0.085 0 -0.008 -0.011 0 0.076z"/>
  <path fill="#2A5496" d="M0.151 0.084l0.029 0c0.002,0 0.004,0.001 0.005,0.002 0.002,0.001 0.002,0.003 0.002,0.005l0 0.011 0.004 0c0.002,0 0.004,0.001 0.005,0.002 0.001,0.001 0.002,0.003 0.002,0.005l0 0.022c0,0.002 -0.001,0.004 -0.002,0.005 -0.001,0.001 -0.003,0.002 -0.005,0.002l-0.029 0c-0.002,0 -0.004,-0.001 -0.005,-0.002 -0.001,-0.001 -0.002,-0.003 -0.002,-0.005l0 -0.011 -0.004 0c-0.002,0 -0.003,-0.001 -0.005,-0.002 -0.001,-0.001 -0.002,-0.003 -0.002,-0.005l0 -0.022c0,-0.002 0.001,-0.004 0.002,-0.005 0.002,-0.001 0.003,-0.002 0.005,-0.002l0 0.007 0 -0.007zm0.036 0.025l0 0.004c0,0.002 0,0.004 -0.002,0.005 -0.001,0.001 -0.003,0.002 -0.005,0.002l-0.018 0 0 0.011 0 0 0.029 0 0 -0.022 -0.004 0zm-0.025 -0.007l0.018 0 0 -0.011 -0.029 0 0 0.022 0.004 0 0 -0.004c0,-0.002 0.001,-0.004 0.002,-0.005 0.001,-0.001 0.003,-0.002 0.005,-0.002l0 0.007 0 -0.007zm0.018 0.007l-0.018 0 0 0.004 0.018 0 0 -0.004z"/>
</svg>
