<?xml version="1.0" encoding="utf-8"?>
<!DOCTYPE svg PUBLIC "-//W3C//DTD SVG 1.1//EN" "http://www.w3.org/Graphics/SVG/1.1/DTD/svg11.dtd">
<svg version="1.1" id="Icon" xmlns="http://www.w3.org/2000/svg" xmlns:xlink="http://www.w3.org/1999/xlink" x="0px" y="0px"
     width="16px" height="16px" viewBox="0 0 16 16" enable-background="new 0 0 16 16" xml:space="preserve">
  <g id="Icon_1_">
    <rect fill="#800080" x="7" y="0" width="1" height="1"/>
    <rect fill="#000000" x="8" y="0" width="1" height="1"/>
    <rect fill="#800080" x="6" y="1" width="1" height="1"/>
    <rect fill="#FF99FF" x="7" y="1" width="1" height="1"/>
    <rect fill="#CC00CC" x="8" y="1" width="1" height="1"/>
    <rect fill="#660066" x="9" y="1" width="1" height="1"/>
    <rect fill="#000000" x="10" y="1" width="1" height="1"/>
    <rect fill="#800080" x="5" y="2" width="1" height="1"/>
    <rect fill="#FF99FF" x="6" y="2" width="1" height="1"/>
    <rect fill="#CC00CC" x="7" y="2" width="3" height="1"/>
    <rect fill="#990099" x="10" y="2" width="1" height="1"/>
    <rect fill="#660066" x="11" y="2" width="1" height="1"/>
    <rect fill="#000000" x="12" y="2" width="1" height="1"/>
    <rect fill="#800080" x="4" y="3" width="1" height="1"/>
    <rect fill="#FF99FF" x="5" y="3" width="1" height="1"/>
    <rect fill="#CC00CC" x="6" y="3" width="2" height="1"/>
    <rect fill="#996633" x="8" y="3" width="2" height="1"/>
    <rect fill="#660066" x="10" y="3" width="1" height="1"/>
    <rect fill="#800080" x="11" y="3" width="2" height="1"/>
    <rect fill="#660066" x="13" y="3" width="1" height="1"/>
    <rect fill="#000000" x="14" y="3" width="1" height="1"/>
    <rect fill="#800080" x="3" y="4" width="1" height="1"/>
    <rect fill="#FF99FF" x="4" y="4" width="1" height="1"/>
    <rect fill="#CC00CC" x="5" y="4" width="2" height="1"/>
    <rect fill="#FFFF00" x="7" y="4" width="3" height="1"/>
    <rect fill="#CC9933" x="10" y="4" width="1" height="1"/>
    <rect fill="#660066" x="11" y="4" width="1" height="1"/>
    <rect fill="#800080" x="12" y="4" width="2" height="1"/>
    <rect fill="#000000" x="14" y="4" width="2" height="1"/>
    <rect fill="#800080" x="2" y="5" width="1" height="1"/>
    <rect fill="#FF99FF" x="3" y="5" width="1" height="1"/>
    <rect fill="#CC00CC" x="4" y="5" width="5" height="1"/>
    <rect fill="#FFCC33" x="9" y="5" width="1" height="1"/>
    <rect fill="#FFFF00" x="10" y="5" width="1" height="1"/>
    <rect fill="#660066" x="11" y="5" width="1" height="1"/>
    <rect fill="#800080" x="12" y="5" width="1" height="1"/>
    <rect fill="#000000" x="13" y="5" width="1" height="1"/>
    <rect fill="#800080" x="14" y="5" width="1" height="1"/>
    <rect fill="#800080" x="1" y="6" width="1" height="1"/>
    <rect fill="#FF99FF" x="2" y="6" width="1" height="1"/>
    <rect fill="#CC00CC" x="3" y="6" width="4" height="1"/>
    <rect fill="#FFFF00" x="7" y="6" width="2" height="1"/>
    <rect fill="#FFCC33" x="9" y="6" width="1" height="1"/>
    <rect fill="#996633" x="10" y="6" width="1" height="1"/>
    <rect fill="#800080" x="11" y="6" width="1" height="1"/>
    <rect fill="#000000" x="12" y="6" width="1" height="1"/>
    <rect fill="#666666" x="13" y="6" width="1" height="1"/>
    <rect fill="#800080" x="14" y="6" width="1" height="1"/>
    <rect fill="#800080" x="0" y="7" width="1" height="1"/>
    <rect fill="#FF99FF" x="1" y="7" width="1" height="1"/>
    <rect fill="#CC00CC" x="2" y="7" width="3" height="1"/>
    <rect fill="#FFFF00" x="5" y="7" width="1" height="1"/>
    <rect fill="#FFCC33" x="6" y="7" width="1" height="1"/>
    <rect fill="#996633" x="7" y="7" width="1" height="1"/>
    <rect fill="#990099" x="8" y="7" width="1" height="1"/>
    <rect fill="#800080" x="9" y="7" width="1" height="1"/>
    <rect fill="#990099" x="10" y="7" width="1" height="1"/>
    <rect fill="#000000" x="11" y="7" width="1" height="1"/>
    <rect fill="#666666" x="12" y="7" width="1" height="1"/>
    <rect fill="#999999" x="13" y="7" width="1" height="1"/>
    <rect fill="#800080" x="14" y="7" width="1" height="1"/>
    <rect fill="#000000" x="15" y="7" width="1" height="1"/>
    <rect fill="#800080" x="0" y="8" width="3" height="1"/>
    <rect fill="#CC00CC" x="3" y="8" width="2" height="1"/>
    <rect fill="#990099" x="5" y="8" width="2" height="1"/>
    <rect fill="#CC00CC" x="7" y="8" width="2" height="1"/>
    <rect fill="#990099" x="9" y="8" width="1" height="1"/>
    <rect fill="#000000" x="10" y="8" width="1" height="1"/>
    <rect fill="#666666" x="11" y="8" width="1" height="1"/>
    <rect fill="#999999" x="12" y="8" width="1" height="1"/>
    <rect fill="#868686" x="13" y="8" width="1" height="1"/>
    <rect fill="#800080" x="14" y="8" width="1" height="1"/>
    <rect fill="#000000" x="15" y="8" width="1" height="1"/>
    <rect fill="#800080" x="0" y="9" width="1" height="1"/>
    <rect fill="#999999" x="1" y="9" width="1" height="1"/>
    <rect fill="#CBCBCB" x="2" y="9" width="1" height="1"/>
    <rect fill="#800080" x="3" y="9" width="2" height="1"/>
    <rect fill="#CC00CC" x="5" y="9" width="3" height="1"/>
    <rect fill="#990099" x="8" y="9" width="1" height="1"/>
    <rect fill="#000000" x="9" y="9" width="1" height="1"/>
    <rect fill="#666666" x="10" y="9" width="1" height="1"/>
    <rect fill="#999999" x="11" y="9" width="1" height="1"/>
    <rect fill="#ADA990" x="12" y="9" width="1" height="1"/>
    <rect fill="#800080" x="13" y="9" width="1" height="1"/>
    <rect fill="#000000" x="14" y="9" width="1" height="1"/>
    <rect fill="#800080" x="0" y="10" width="1" height="1"/>
    <rect fill="#999999" x="1" y="10" width="1" height="1"/>
    <rect fill="#E7E7D6" x="2" y="10" width="1" height="1"/>
    <rect fill="#CBCBCB" x="3" y="10" width="1" height="1"/>
    <rect fill="#ADA990" x="4" y="10" width="1" height="1"/>
    <rect fill="#800080" x="5" y="10" width="2" height="1"/>
    <rect fill="#990099" x="7" y="10" width="1" height="1"/>
    <rect fill="#000000" x="8" y="10" width="1" height="1"/>
    <rect fill="#868686" x="9" y="10" width="1" height="1"/>
    <rect fill="#999999" x="10" y="10" width="1" height="1"/>
    <rect fill="#CBCBCB" x="11" y="10" width="1" height="1"/>
    <rect fill="#800080" x="12" y="10" width="1" height="1"/>
    <rect fill="#000000" x="13" y="10" width="1" height="1"/>
    <rect fill="#800080" x="0" y="11" width="1" height="1"/>
    <rect fill="#D60093" x="1" y="11" width="1" height="1"/>
    <rect fill="#CC66CC" x="2" y="11" width="1" height="1"/>
    <rect fill="#E7E7D6" x="3" y="11" width="2" height="1"/>
    <rect fill="#CBCBCB" x="5" y="11" width="2" height="1"/>
    <rect fill="#800080" x="7" y="11" width="1" height="1"/>
    <rect fill="#999999" x="8" y="11" width="1" height="1"/>
    <rect fill="#ADA990" x="9" y="11" width="1" height="1"/>
    <rect fill="#CBCBCB" x="10" y="11" width="1" height="1"/>
    <rect fill="#800080" x="11" y="11" width="1" height="1"/>
    <rect fill="#000000" x="12" y="11" width="1" height="1"/>
    <rect fill="#660066" x="1" y="12" width="2" height="1"/>
    <rect fill="#D60093" x="3" y="12" width="1" height="1"/>
    <rect fill="#CC66CC" x="4" y="12" width="1" height="1"/>
    <rect fill="#E7E7D6" x="5" y="12" width="3" height="1"/>
    <rect fill="#CBCBCB" x="8" y="12" width="2" height="1"/>
    <rect fill="#800080" x="10" y="12" width="1" height="1"/>
    <rect fill="#000000" x="11" y="12" width="1" height="1"/>
    <rect fill="#660066" x="3" y="13" width="2" height="1"/>
    <rect fill="#D60093" x="5" y="13" width="1" height="1"/>
    <rect fill="#CC66CC" x="6" y="13" width="1" height="1"/>
    <rect fill="#E7E7D6" x="7" y="13" width="1" height="1"/>
    <rect fill="#CBCBCB" x="8" y="13" width="1" height="1"/>
    <rect fill="#800080" x="9" y="13" width="1" height="1"/>
    <rect fill="#000000" x="10" y="13" width="1" height="1"/>
    <rect fill="#660066" x="5" y="14" width="2" height="1"/>
    <rect fill="#D60093" x="7" y="14" width="1" height="1"/>
    <rect fill="#800080" x="8" y="14" width="1" height="1"/>
    <rect fill="#000000" x="9" y="14" width="1" height="1"/>
    <rect fill="#660066" x="7" y="15" width="1" height="1"/>
    <rect fill="#000000" x="8" y="15" width="1" height="1"/>
  </g>
</svg>
