<?xml version="1.0" encoding="utf-8"?>
<!DOCTYPE svg PUBLIC "-//W3C//DTD SVG 1.1//EN" "http://www.w3.org/Graphics/SVG/1.1/DTD/svg11.dtd">
<svg version="1.1" id="Icon" xmlns="http://www.w3.org/2000/svg" xmlns:xlink="http://www.w3.org/1999/xlink" x="0px" y="0px"
     width="16px" height="16px" viewBox="0 0 16 16" enable-background="new 0 0 16 16" xml:space="preserve">
  <g id="Icon_1_">
    <rect fill="#D6D6D6" x="6" y="2" width="4" height="1"/>
    <rect fill="#D6D6D6" x="4" y="3" width="2" height="1"/>
    <rect fill="#D6D6D6" x="6" y="3" width="4" height="1"/>
    <rect fill="#D6D6D6" x="10" y="3" width="2" height="1"/>
    <rect fill="#D6D6D6" x="3" y="4" width="1" height="1"/>
    <rect fill="#D6D6D6" x="4" y="4" width="1" height="1"/>
    <rect fill="#D6D6D6" x="5" y="4" width="6" height="1"/>
    <rect fill="#D6D6D6" x="11" y="4" width="1" height="1"/>
    <rect fill="#D6D6D6" x="12" y="4" width="1" height="1"/>
    <rect fill="#D6D6D6" x="3" y="5" width="1" height="1"/>
    <rect fill="#D6D6D6" x="4" y="5" width="8" height="1"/>
    <rect fill="#D6D6D6" x="12" y="5" width="1" height="1"/>
    <rect fill="#D6D6D6" x="2" y="6" width="1" height="1"/>
    <rect fill="#D6D6D6" x="3" y="6" width="10" height="1"/>
    <rect fill="#D6D6D6" x="13" y="6" width="1" height="1"/>
    <rect fill="#D6D6D6" x="2" y="7" width="1" height="1"/>
    <rect fill="#D6D6D6" x="3" y="7" width="10" height="1"/>
    <rect fill="#D6D6D6" x="13" y="7" width="1" height="1"/>
    <rect fill="#D6D6D6" x="2" y="8" width="1" height="1"/>
    <rect fill="#D6D6D6" x="3" y="8" width="10" height="1"/>
    <rect fill="#D6D6D6" x="13" y="8" width="1" height="1"/>
    <rect fill="#D6D6D6" x="2" y="9" width="1" height="1"/>
    <rect fill="#D6D6D6" x="3" y="9" width="10" height="1"/>
    <rect fill="#D6D6D6" x="13" y="9" width="1" height="1"/>
    <rect fill="#D6D6D6" x="3" y="10" width="1" height="1"/>
    <rect fill="#D6D6D6" x="4" y="10" width="8" height="1"/>
    <rect fill="#D6D6D6" x="12" y="10" width="1" height="1"/>
    <rect fill="#D6D6D6" x="3" y="11" width="1" height="1"/>
    <rect fill="#D6D6D6" x="4" y="11" width="1" height="1"/>
    <rect fill="#D6D6D6" x="5" y="11" width="6" height="1"/>
    <rect fill="#D6D6D6" x="11" y="11" width="1" height="1"/>
    <rect fill="#D6D6D6" x="12" y="11" width="1" height="1"/>
    <rect fill="#D6D6D6" x="4" y="12" width="2" height="1"/>
    <rect fill="#D6D6D6" x="6" y="12" width="4" height="1"/>
    <rect fill="#D6D6D6" x="10" y="12" width="2" height="1"/>
    <rect fill="#D6D6D6" x="6" y="13" width="4" height="1"/>
  </g>
</svg>
