<?xml version="1.0" encoding="utf-8"?>
<!DOCTYPE svg PUBLIC "-//W3C//DTD SVG 1.1//EN" "http://www.w3.org/Graphics/SVG/1.1/DTD/svg11.dtd">
<svg version="1.1" id="Icon" xmlns="http://www.w3.org/2000/svg" xmlns:xlink="http://www.w3.org/1999/xlink" x="0px" y="0px"
     width="16px" height="16px" viewBox="0 0 16 16" enable-background="new 0 0 16 16" xml:space="preserve">
  <g id="Icon_1_">
    <path fill="#4DA3FF" d="M0,0h1v1H0V0z M2,0h1v1H2V0z M4,0h1v1H4V0z M6,0h1v1H6V0z M8,0h1v1H8V0z M10,0h1v1H10V0z M12,0h1v1H12V0z M14,0h1v1H14V0z M0,2h1v1H0V2z M14,2h1v1H14V2z M0,4h1v1H0V4z M14,4h1v1H14V4z M0,6h1v1H0V6z M14,6h1v1H14V6z M0,8h1v1H0V8z M14,8h1v1H14V8z M0,10h1v1H0V10z M14,10h1v1H14V10z M0,12h1v1H0V12z M14,12h1v1H14V12z M0,14h1v1H0V14z M2,14h1v1H2V14z M4,14h1v1H4V14z M6,14h1v1H6V14z M8,14h1v1H8V14z M10,14h1v1H10V14z M12,14h1v1H12V14z M14,14h1v1H14V14z"/>
    <path fill="#D6D6D6" d="M3,3h1v1H3V3z M11,3h1v1H11V3z M3,4h1v1H3V4z M11,4h1v1H11V4z M4,5h7v1H4V5z M4,6h1v1H4V6z M10,6h1v1H10V6z M5,7h1v1H5V7z M9,7h1v1H9V7z M5,8h1v1H5V8z M9,8h1v1H9V8z M6,9h1v1H6V9z M8,9h1v1H8V9z M6,10h1v1H6V10z M8,10h1v1H8V10z M7,11h1v1H7V11z M7,12h1v1H7V12z"/>
  </g>
</svg>
